<svg xmlns="http://www.w3.org/2000/svg" data-name="Layer 1" width="1046" height="638.5836181640625" style=""><rect id="backgroundrect" width="100%" height="100%" x="0" y="0" fill="none" stroke="none"/><defs><filter xmlns:inkscape="http://www.inkscape.org/namespaces/inkscape" id="f200" inkscape:label="Wrinkled varnish" inkscape:menu="Bumps" inkscape:menu-tooltip="Thick glossy and translucent paint texture with high depth" height="1.5" y="-0.25" width="1.5" x="-0.25" color-interpolation-filters="sRGB">
            <feGaussianBlur stdDeviation="1" in="SourceGraphic" result="result9"/>
            <feTurbulence seed="0" result="result7" type="fractalNoise" numOctaves="5" baseFrequency=".015"/>
            <feComposite in2="result7" result="result6" operator="out" in="result9"/>
            <feGaussianBlur result="result11" stdDeviation="2"/>
            <feDisplacementMap in="result7" in2="result11" xChannelSelector="A" yChannelSelector="G" scale="100" result="result4"/>
            <feComposite in2="result4" result="result2" operator="in" in="result9"/>
            <feComposite result="fbSourceGraphic" operator="in" in2="SourceGraphic"/>
            <feBlend result="fbSourceGraphic" mode="multiply" in2="fbSourceGraphic"/>
            <feGaussianBlur result="result13" stdDeviation=".5"/>
            <feSpecularLighting in="result13" specularExponent="5" surfaceScale="15" result="result12">
                <feDistantLight elevation="35" azimuth="225"/>
            </feSpecularLighting>
            <feComposite in2="fbSourceGraphic" in="result12" result="result2" operator="in"/>
            <feComposite in="fbSourceGraphic" result="result4" operator="arithmetic" k2="1" k3="1" in2="result2"/>
        </filter></defs><title>ready_to_print</title><g class="currentLayer" style=""><title>Layer 1</title><path d="M109.80217734527588,554.6452843408204 c8.56512,31.661830000000002 37.902590000000004,51.27079 37.902590000000004,51.27079 s15.45066,-31.725 6.88554,-63.38682 s-37.90258,-51.27079 -37.90258,-51.27079 S101.23705734527587,522.9834543408203 109.80217734527588,554.6452843408204 z" fill="#101b3b" id="svg_1" class="" fill-opacity="1"/><path d="M122.38801734527587,547.8408243408203 c23.50281,22.879 26.37351,58.04945 26.37351,58.04945 s-35.23489,-1.9238400000000002 -58.7377,-24.802880000000002 s-26.37351,-58.04945 -26.37351,-58.04945 S98.88520734527589,524.9618243408203 122.38801734527587,547.8408243408203 z" fill="#235aa6" id="svg_2" class="" fill-opacity="1"/><rect x="113.47360229492188" y="636.029296875" width="827.6043701171875" height="2.5543301105499268" fill="#2f2e41" id="svg_3"/><path d="M159.30402734527587,637.3064743408203 H126.09767734527588 V604.1001243408203 H159.30402734527587 zm-30.652,-2.55433 h28.09768 V606.6544643408204 H128.65201734527585 z" fill="#3f3d56" id="svg_4" class=""/><rect y="25.32185935974121" width="281.4197692871094" height="281.4197692871094" fill="#101b3b" id="svg_5" class="" fill-opacity="1"/><path d="M281.41977,95.3377243408203 V101.79682434082031 a29.20519,29.20519 0 0 1 -10.03614,-11.3755 c-3.7466500000000003,-7.66268 -3.628,-16.49523 -3.50929,-25.03951 c0.13566,-10.15483 0.27121,-19.73331 -6.17091,-25.972 c-7.08634,-6.84908 -18.4279,-5.88275 -29.39644,-4.9502500000000005 c-1.28845,0.10172000000000002 -2.57689,0.22029000000000004 -3.84837,0.32200000000000006 c-11.00248,0.8307800000000001 -23.25956,-1.94953 -29.21,-9.4597 H206.67399999999998 c5.44195,3.6618000000000004 13.76593,4.9502500000000005 21.41164,4.3738 c1.23764,-0.08475000000000002 2.5091200000000002,-0.20343000000000003 3.78059,-0.30514 c11.545,-0.9832 24.63265,-2.10216 33.36349,6.35737 c8.03571,7.7645 7.88308,18.91961 7.73056,29.70169 c-0.11868000000000002,7.9510000000000005 -0.22039000000000003,16.15626 3.00072,22.73392 A23.24979,23.24979 0 0 0 281.41977,95.3377243408203 z" fill="#235aa6" id="svg_6" class="" fill-opacity="1"/><path d="M281.41977,140.0088243408203 v7.5610800000000005 a32.155,32.155 0 0 0 -4.13653,-4.4586500000000004 c-8.7477,-7.71359 -21.30993,-9.40889 -33.44824,-11.07025 c-1.57661,-0.20354000000000003 -3.11939,-0.42383000000000004 -4.66207,-0.6442300000000001 c-19.68251,-2.83122 -31.88859,-9.59545 -37.2966,-20.63187 c-3.7466500000000003,-7.66268 -3.628,-16.49523 -3.50928,-25.03951 c0.13565,-10.15483 0.2712,-19.73331 -6.17092,-25.972 c-7.08634,-6.84908 -18.4279,-5.88275 -29.39644,-4.9502500000000005 c-1.28844,0.10171000000000001 -2.57689,0.22029000000000004 -3.84836,0.32200000000000006 c-14.13885,1.068 -30.36288,-3.83129 -32.58372,-17.07158 c-0.7628000000000001,-4.5435 0.37300000000000005,-8.71387 2.0513500000000002,-12.73172 h5.56064 c-1.8649,4.03482 -3.2550499999999998,7.934 -2.5938600000000003,11.88407 c1.67833,10.10392 15.27467,13.73189 27.19257,12.83333 c1.23764,-0.08475000000000002 2.5091099999999997,-0.20343000000000003 3.78059,-0.30514 c11.545,-0.9832 24.63265,-2.10216 33.36349,6.35737 c8.0357,7.7645 7.88308,18.9196 7.73056,29.70169 c-0.11868000000000002,7.9510000000000005 -0.22040000000000004,16.15625 3.00071,22.73392 c4.61117,9.426 15.54587,15.2577 33.44824,17.83459 c1.5257,0.22040000000000004 3.06849,0.44079 4.61116,0.6442200000000001 c12.88434,1.74621 26.22634,3.56009 36.14381,12.29093 Q281.03837,139.6274343408203 281.41977,140.0088243408203 z" fill="#235aa6" id="svg_7" class="" fill-opacity="1"/><path d="M281.41977,267.4614643408203 v10.44311 c-6.12,-6.51 -11.23984,-15.44416 -15.156,-26.61623 c-0.8306800000000001,-2.37336 -1.6275300000000001,-4.79773 -2.42427,-7.222 c-4.3908700000000005,-13.27412 -8.93426,-26.98914 -19.75028,-35.75381 c-11.562,-9.35809 -28.125,-11.42631 -44.14557,-13.42685 c-2.0513500000000002,-0.25422999999999996 -4.1026,-0.50857 -6.1370000000000005,-0.7797700000000001 c-25.972,-3.44151 -42.06038,-11.62973 -49.19763,-25.02264 c-4.9502500000000005,-9.30718 -4.79773,-20.02149 -4.64511,-30.37975 c0.18646000000000004,-12.30789 0.37300000000000005,-23.93762 -8.13742,-31.4987 c-9.34112,-8.307 -24.31064,-7.13725 -38.7715,-6.00132 c-1.7122700000000002,0.13555 -3.40757,0.2712 -5.06893,0.3898800000000001 c-18.66526,1.28845 -40.07691,-4.6451 -42.99288,-20.69964 c-1.441,-7.8661200000000004 2.23781,-14.83388 5.781,-21.58114 c2.03438,-3.86533 3.96694,-7.5441 4.9502500000000005,-11.32459 c2.06832,-7.78147 -0.49160000000000004,-16.54614 -6.17092,-22.666150000000002 h8.307 a29.86869,29.86869 0 0 1 4.39077,24.12408 c-1.16966,4.42471 -3.33969,8.56125 -5.4418500000000005,12.56223 c-3.23808,6.1370000000000005 -6.27263,11.93488 -5.20458,17.86843 c2.23781,12.24 20.15714,16.647850000000002 35.8725,15.56284 c1.6444900000000002,-0.11869000000000003 3.32283,-0.25434 5.00116,-0.3729200000000001 c15.22386,-1.2037 32.482,-2.5429500000000003 44.01,7.71359 c10.59562,9.4089 10.39219,22.937359999999998 10.18877,36.00816 c-0.13566,9.64626 -0.28828000000000004,19.59766 3.95,27.58256 c6.08617,11.40933 20.53016,18.49567 44.14567,21.63194 c2.00044,0.27130000000000004 4.03483,0.52554 6.0691,0.7798700000000001 c17.02088,2.11913 34.60113,4.306 47.67193,14.90165 c12.257,9.93454 17.08855,24.4971 21.73365,38.585 c0.7968500000000001,2.4074 1.59359,4.78076 2.4074,7.13725 A80.35091,80.35091 0 0 0 281.41977,267.4614643408203 z" fill="#235aa6" id="svg_8" class="" fill-opacity="1"/><path d="M0,138.9578243408203 c7.73057,9.358 24.12412,12.81647 38.82237,11.79929 c1.6613900000000001,-0.11868000000000002 3.35669,-0.2543 5.0689400000000004,-0.3899200000000001 c14.46091,-1.13585 29.43041,-2.30561 38.77151,6.00136 c8.51041,7.561 8.32392,19.19079 8.13744,31.49867 c-0.15258000000000002,10.35828 -0.30515000000000003,21.07258 4.64512,30.37977 c7.13721,13.39287 23.22561,21.58117 49.1976,25.02263 c2.03436,0.27125 4.08567,0.52554 6.1370000000000005,0.7798400000000001 c16.02058,2.00045 32.58366,4.06871 44.14561,13.42677 c10.816,8.7647 15.35941,22.47968 19.75024,35.75387 c0.7967900000000001,2.42428 1.59358,4.84856 2.42428,7.222 c0.7628800000000001,2.18694 1.5766300000000002,4.27216 2.42428,6.28956 h7.25588 c-1.27148,-2.7633400000000004 -2.35647,-5.52667 -3.2888800000000002,-8.17134 c-0.8137500000000001,-2.35647 -1.61054,-4.72989 -2.40733,-7.13721 c-4.64512,-14.08795 -9.47672,-28.650570000000002 -21.73374,-38.585 c-13.07076,-10.59562 -30.651,-12.78256 -47.67183,-14.90168 c-2.03436,-0.2543 -4.06872,-0.50859 -6.06918,-0.7798400000000001 c-23.61552,-3.13631 -38.05948,-10.22266 -44.1456,-21.632 c-4.23825,-7.98486 -4.08568,-17.93627 -3.95,-27.58253 c0.20343000000000003,-13.07076 0.40687000000000006,-26.59925 -10.18876,-36.00816 c-11.528,-10.25657 -28.78619,-8.91728 -44.01,-7.713620000000001 c-1.67835,0.11867000000000003 -3.35669,0.2543 -5.00113,0.37300000000000005 c-15.71543,1.085 -33.63475,-3.32279 -35.87255,-15.56286 c-1.068,-5.93355 1.96655,-11.73147 5.20457,-17.86846 c2.10217,-4.0009 4.27216,-8.13744 5.44191,-12.56217 c3.18717,-12.10444 -2.1869300000000003,-25.51426 -13.08771,-32.838 v8.307 c5.9505,6.1370000000000005 8.663,15.10513 6.56081,23.073 c-0.98327,3.78052 -2.91592,7.45932 -4.95028,11.32461 c-0.54249,1.03413 -1.085,2.05131 -1.61053,3.1024 z" fill="#235aa6" id="svg_9" class="" fill-opacity="1"/><path d="M124.48585,306.7416343408203 h-7.03543 c-0.37300000000000005,-1.102 -0.7290700000000001,-2.22084 -1.102,-3.33979 c-4.39088,-13.27412 -8.93427,-26.98915 -19.75029,-35.75382 c-11.562,-9.35809 -28.125,-11.4263 -44.14557,-13.42685 c-2.0513500000000002,-0.25422999999999996 -4.1026,-0.50857 -6.1370000000000005,-0.7797700000000001 C23.395120000000006,250.40675434082033 8.154390000000006,243.6594943408203 0,232.9113543408203 V216.0430943408203 a31.99435,31.99435 0 0 0 3.13626,9.66323 c6.08618,11.40934 20.53016,18.49568 44.14568,21.63194 c2.00044,0.27131000000000005 4.03482,0.52554 6.0691,0.77988 c17.02087,2.11912 34.60112,4.306 47.67192,14.90164 c12.257,9.93454 17.08855,24.49711 21.73366,38.58505 C123.33305999999999,303.3340643408203 123.89254,305.0463343408203 124.48585,306.7416343408203 z" fill="#235aa6" id="svg_10" class="" fill-opacity="1"/><rect x="381.4424743652344" y="25.32185935974121" width="281.4197692871094" height="281.4197692871094" fill="#101b3b" id="svg_11" class="" fill-opacity="1"/><path d="M517.06645,45.66546434082031 a89.85757,89.85757 0 0 1 -135.624,77.3226 V25.321824340820314 H514.7439 A89.3085,89.3085 0 0 1 517.06645,45.66546434082031 z" fill="#235aa6" id="svg_12" class="" fill-opacity="1"/><circle cx="589.96435546875" cy="101.6103515625" r="54.24959182739258" fill="#235aa6" id="svg_13" class="" fill-opacity="1"/><circle cx="467.90277099609375" cy="216.8907470703125" r="38.99190139770508" fill="#235aa6" id="svg_14" class="" fill-opacity="1"/><path d="M662.86224,260.62946434082033 v46.11217 H607.07 a38.99494,38.99494 0 0 1 55.79228,-46.11217 z" fill="#235aa6" id="svg_15" class="" fill-opacity="1"/><circle cx="566.2301635742188" cy="215.1954345703125" r="10.171799659729004" fill="#6c63ff" id="svg_16"/><rect x="764.5802001953125" y="25.32185935974121" width="281.4197692871094" height="281.4197692871094" fill="#101b3b" id="svg_17" class="" fill-opacity="1"/><path d="M901.89951,25.321824340820314 V140.6022543408203 H764.58023 v6.7812 H908.68071 V25.321824340820314 z" fill="#235aa6" id="svg_18" class="" fill-opacity="1"/><path d="M1034.3533,306.7416343408203 L1046,290.17852434082033 V278.3961743408203 l-19.93674,28.34546 zm-47.29891,-121.34959 l-62.404,88.74891 l46.36651,32.60068 h11.78225 l-48.70593,-34.24507 l54.60565,-77.66169000000001 L1046,235.1321843408203 v-8.29 z" fill="#235aa6" id="svg_19" class="" fill-opacity="1"/><path d="M883.25122,174.15220434082033 l-35.95735,35.95734 L883.25122,246.0668243408203 l35.95734,-35.95725 zm-26.37887,35.95734 l26.37887,-26.37886 l26.37886,26.37886 l-26.37886,26.37886 z" fill="#235aa6" id="svg_20" class="" fill-opacity="1"/><circle cx="137.93406677246094" cy="25.543350219726562" r="25.543350219726562" fill="#ee0979" id="svg_21" class="" fill-opacity="1"/><circle cx="532.5787353515625" cy="25.543350219726562" r="25.543350219726562" fill="#ee0979" id="svg_22" class="" fill-opacity="1"/><circle cx="909.3430786132812" cy="25.543350219726562" r="25.543350219726562" fill="#ee0979" id="svg_23" class="" fill-opacity="1"/><circle cx="506.3968200683594" cy="150.06715393066406" r="24.26618003845215" fill="#ffb8b8" id="svg_24"/><path d="M493.62514999999996,161.5616643408203 s6.38584,33.20635 3.8315,39.59219 s35.76069,-2.55434 35.76069,-2.55434 s-7.663,-33.20635 -6.38584,-40.86935 S493.62514999999996,161.5616643408203 493.62514999999996,161.5616643408203 z" fill="#ffb8b8" id="svg_25"/><polygon points="451.479 276.507 454.033 310.99 466.71 365.146 470.636 379.957 477.022 356.968 470.636 304.604 468.467 281.029 451.479 276.507" fill="#ffb8b8" id="svg_26"/><path d="M585.5812,271.3980543408203 v35.76068 s-3.8315099999999997,45.978 -11.49451,57.47253 s-10.21734,-45.978 -10.21734,-45.978 l6.00472,-42.14652 z" fill="#ffb8b8" id="svg_27"/><path d="M471.91331,382.5116043408203 s-6.38584,7.663 -1.27717,85.57021 S468.08181,602.1843743408203 484.68499999999995,602.1843743408203 c0,0 -5.10867,16.603180000000002 8.94017,17.88034 s20.43468,2.55434 21.71185,-1.27716 s3.8315,-21.71185 0,-21.71185 c0,0 0,5.10867 2.55433,-15.326 s2.55434,-117.49939 8.94017,-130.27107 L547.26618,498.7338243408203 s0,21.71185 3.8315,31.92918 s10.21734,68.967 10.21734,68.967 l-1.27717,8.94017 s30.652,5.10867 31.92918,0 s1.27717,-12.77167 0,-15.326 s-1.27716,-2.55433 1.27717,-7.663 s2.55433,-8.94017 1.27717,-12.77168 s-1.27717,-86.84737 -1.27717,-86.84737 s-2.55433,-100.89622 -17.88034,-106.00488 S471.91331,382.5116043408203 471.91331,382.5116043408203 z" fill="#2f2e41" id="svg_28" class=""/><path d="M488.51648,609.8473843408203 L478.29915000000005,627.7277243408203 s-15.9646,-5.74726 -12.77168,8.94017 c27.4591,1.91575 46.61661,-0.6385900000000001 46.61661,-0.6385900000000001 s6.38583,2.55434 7.663,-1.27716 s-3.19292,-17.24176 -7.02442,-17.24176 S488.51648,609.8473843408203 488.51648,609.8473843408203 z" fill="#2f2e41" id="svg_29"/><path d="M562.59219,604.7387143408204 s-10.21734,22.989 -6.38584,24.26617 s38.315,6.38584 40.86935,7.663 s15.326,2.55433 16.603180000000002,-5.10867 s-6.38584,-10.21734 -6.38584,-10.21734 s-14.04884,-2.55433 -17.88034,-15.326 S562.59219,604.7387143408204 562.59219,604.7387143408204 z" fill="#2f2e41" id="svg_30"/><path d="M535.77167,194.7680143408203 s-34.48351,-6.38584 -42.14652,0 S454.033,213.9255243408203 454.033,220.31136434082032 s16.60317,68.967 16.60317,68.967 s-8.94017,94.51038 0,97.06471 s24.26618,-5.10867 42.14652,3.8315 s68.967,-7.663 68.967,-7.663 s-19.1575,-81.73871 -14.04884,-97.06471 S576.641,217.7570243408203 576.641,217.7570243408203 S554.92918,194.7680143408203 535.77167,194.7680143408203 z" fill="#ee0979" id="svg_31" class="" fill-opacity="1" filter="" opacity="1"/><path d="M462.97313999999994,216.4798243408203 l-8.94017,2.55434 s-19.15751,60.02686 -11.49451,62.5812 s29.37485,7.663 31.92918,7.663 S462.97313999999994,216.4798243408203 462.97313999999994,216.4798243408203 z" fill="#ee0979" id="svg_32" class="" fill-opacity="1"/><path d="M556.20635,210.09402434082034 l20.43468,7.663 s26.82051,49.80953 20.43467,56.19536 s-34.48351,12.77167 -34.48351,12.77167 z" fill="#ee0979" id="svg_33" class="" fill-opacity="1"/><path d="M505.65976,120.09493434082032 a13.71573,13.71573 0 0 0 -6.07019,0.268 a15.82759,15.82759 0 0 0 -4.31392,2.82985 a50.4916,50.4916 0 0 1 -7.37585,4.8867400000000005 c-2.06956,1.12349 -4.29419,2.16336 -5.739,4.0229 a12.21131,12.21131 0 0 0 -1.6197700000000002,3.0660600000000002 a36.74031,36.74031 0 0 0 -1.93172,19.99594 a9.191,9.191 0 0 0 0.8507400000000002,2.74569 c1.3274000000000001,2.44565 4.2592,3.40946 6.72893,4.6915000000000004 c4.689,2.43407 8.24343,6.5327 12.0893,10.15493 a23.63371,23.63371 0 0 0 4.77654,3.68109 c5.48669,2.99147 12.193060000000001,2.01557 18.35208,0.9577500000000001 a3.30733,3.30733 0 0 0 3.30082,-3.33887 l4.8615200000000005,-21.86575 a35.673140000000004,35.673140000000004 0 0 0 1.246,-9.94447 c-0.33919000000000005,-5.30791 -3.21279,-12.66061 -7.10829,-16.431 C519.168,121.42212434082032 511.59285,120.72305434082031 505.65976,120.09493434082032 z" fill="#2f2e41" id="svg_34"/><circle cx="867.024393081665" cy="607.9689331054688" r="10.07861042022705" fill="#235aa6" id="svg_35" class="" fill-opacity="1"/><path d="M867.0244039703368,637.0849043408203 a29.116,29.116 0 1 1 29.116,-29.116 A29.14864,29.14864 0 0 1 867.0244039703368,637.0849043408203 zm0,-55.99228 a26.87629,26.87629 0 1 0 26.87629,26.87629 A26.90708,26.90708 0 0 0 867.0244039703368,581.0926243408203 z" fill="#2f2e41" id="svg_36" class=""/><circle cx="741.742311000824" cy="607.8175222873688" r="10.07861042022705" fill="#235aa6" id="svg_37" class="" fill-opacity="1"/><path d="M741.7423414305115,636.9334928781891 a29.116,29.116 0 1 1 29.116,-29.116 A29.14864,29.14864 0 0 1 741.7423414305115,636.9334928781891 zm0,-55.99227 a26.87629,26.87629 0 1 0 26.87629,26.87629 A26.90708,26.90708 0 0 0 741.7423414305115,580.9412528781891 z" fill="#2f2e41" id="svg_38" class=""/><circle cx="741.742311000824" cy="551.6221487522125" r="10.07861042022705" fill="#235aa6" id="svg_39" class="" fill-opacity="1" stroke="none"/><path d="M741.7423414305115,580.738132878189 a29.116,29.116 0 1 1 29.116,-29.116 A29.14864,29.14864 0 0 1 741.7423414305115,580.738132878189 zm0,-55.99227 a26.87629,26.87629 0 1 0 26.87629,26.87629 A26.90708,26.90708 0 0 0 741.7423414305115,524.7458628781891 z" fill="#2f2e41" id="svg_40" class=""/><g transform="translate(0,185) scale(0.10000000149011612,-0.10000000149011612) " fill="#ee0979" stroke="none" class="" fill-opacity="1" id="svg_41" filter="">
<path d="M3348.953768763491,-3305.2531405549116 c-19.601174245668698,-3.0690884485709375 -48.610912129258374,-11.509081682141016 -64.29185152579333,-17.64725857928289 c-39.98639546116414,-16.112714354997422 -98.0058712283435,-70.58903431713156 -109.76657577574471,-102.81446302712641 c-8.624516668094227,-23.785435476424766 -11.760704547401218,-26.08725181285297 -33.71401970255016,-22.250891252139297 c-12.544751517227967,3.0690884485709375 -36.0661606120304,11.509081682141016 -51.74710000856536,18.414530691425625 l-29.009737883589672,13.810898018569219 l-3.1361878793069917,-66.75267375641789 c-3.1361878793069917,-59.84722474713328 -7.056422728440731,-74.42539487784524 -36.0661606120304,-131.97080328855031 c-19.601174245668698,-39.130877719279454 -44.69067728012463,-75.9599391021307 -63.50780455596658,-92.07265345712813 c-32.929972732723414,-29.156340261423907 -98.78991819817024,-52.94177573784867 -169.35414548257756,-62.149041083561485 l-39.202348491337396,-4.603632672856406 l47.82686515943163,18.414530691425625 c108.19848183609122,41.43269405570766 149.75297123690885,69.82176220498883 176.41056821101827,121.22899371855203 c19.601174245668698,36.82906138285125 18.81712727584195,36.82906138285125 -9.408563637920976,36.82906138285125 l-24.305456064629187,0 l19.601174245668698,22.250891252139297 c19.601174245668698,23.01816336428203 65.85994546544683,135.807163849264 58.8035227370061,143.47988497069133 c-2.352140909480244,1.5345442242854692 -14.112845456881463,0 -26.65759697410943,-4.603632672856406 c-12.544751517227967,-4.603632672856406 -61.15566364648634,-19.18180280356836 -108.98252880591797,-31.45815659785211 c-194.4436485170335,-51.407231513563204 -325.3794924781004,-142.7126128585486 -325.3794924781004,-226.34527308210664 c0,-11.509081682141016 -17.249033336188454,-54.47631996213414 -38.41830152151065,-94.37446979355633 c-59.587569706832845,-113.55627259712469 -73.70041516371431,-161.89441566211696 -68.99613334475382,-230.94890575496305 c2.352140909480244,-32.225428709994844 13.328798487054716,-82.86538811141531 25.089503034455934,-115.09081682141016 c19.601174245668698,-55.243592074276876 20.385221215495445,-62.149041083561485 16.464986366361707,-172.63622523211524 c-2.352140909480244,-62.91631319570422 -6.2723757586139826,-127.36717061569391 -8.624516668094227,-141.94534074640586 c-6.2723757586139826,-34.52724504642305 7.056422728440731,-52.94177573784867 47.04281818960487,-61.38176897141875 c43.12258334047114,-9.974537457855547 80.75683789215503,-2.301816336428203 95.65373031886325,20.71634702785383 c11.760704547401218,17.64725857928289 11.760704547401218,19.18180280356836 -12.544751517227967,42.967238279993126 c-43.906630310297885,44.501782504278594 -26.65759697410943,102.04719091498367 45.47472424995138,152.68715031640414 c24.305456064629187,16.879986467140156 67.42803940510032,55.243592074276876 96.43777728869,85.16720444784352 l52.53114697839211,53.70904784999141 l33.71401970255016,-8.439993233570078 c18.81712727584195,-4.603632672856406 90.16540153007601,-13.810898018569219 159.16153487482984,-19.949074915711094 c136.42417274985414,-13.043625906426485 167.0020045730973,-19.18180280356836 205.42030609460795,-42.19996616785039 c37.6342545516839,-23.01816336428203 90.16540153007601,-92.83992556927086 139.56036062916112,-186.44712325068446 l43.906630310297885,-82.86538811141531 l61.15566364648634,0 c68.99613334475382,0 84.67707274128878,9.207265345712813 76.05255607319455,42.967238279993126 c-3.1361878793069917,12.27635379428375 -14.896892426708211,23.01816336428203 -31.361878793069916,29.92361237356664 c-37.6342545516839,15.345442242854688 -50.17900606891187,61.38176897141875 -36.0661606120304,136.57443596140672 c11.760704547401218,63.683585307846954 23.521409094802436,79.79629966284438 87.02921365076902,117.39263315783836 c46.258771219778126,26.854523924995704 125.44751517227967,118.92717738212383 140.34440759898789,161.12714354997422 c14.896892426708211,44.501782504278594 31.361878793069916,160.3598714378315 31.361878793069916,225.5780009699639 c0,57.54540841070508 -3.1361878793069917,72.12357854141703 -21.169268185322196,107.41809569998281 c-12.544751517227967,23.01816336428203 -25.87355000428268,42.967238279993126 -31.361878793069916,44.501782504278594 c-4.704281818960488,1.5345442242854692 -22.73736212497569,-9.974537457855547 -39.98639546116414,-24.5527075885675 c-17.249033336188454,-15.345442242854688 -33.71401970255016,-27.621796037138438 -36.0661606120304,-27.621796037138438 c-11.760704547401218,0 23.521409094802436,46.8035988407068 50.17900606891187,68.28721798070336 c14.896892426708211,11.509081682141016 38.41830152151065,36.061789270708516 50.963053038738614,54.47631996213414 c20.385221215495445,29.156340261423907 21.169268185322196,32.99270082213758 9.408563637920976,39.130877719279454 c-7.056422728440731,4.603632672856406 -17.249033336188454,14.578170130711953 -21.953315155148942,23.01816336428203 c-7.840469698267479,15.345442242854688 -7.840469698267479,15.345442242854688 12.544751517227967,2.301816336428203 l21.169268185322196,-13.043625906426485 l-3.1361878793069917,26.08725181285297 l-2.352140909480244,26.08725181285297 l-65.07589849562008,3.836360560713672 l-65.07589849562008,3.836360560713672 l-18.81712727584195,45.26905461642133 c-24.305456064629187,58.31268052284781 -44.69067728012463,79.02902755070164 -93.301589409383,92.83992556927086 c-41.55448940081764,12.27635379428375 -59.587569706832845,13.043625906426485 -114.4708575947052,3.836360560713672 zm-11.760704547401218,-58.31268052284781 c18.0330803060152,-6.9054490092846095 35.282113642203655,-43.73451039213586 35.282113642203655,-75.9599391021307 c0,-17.64725857928289 -7.840469698267479,-38.36360560713672 -20.385221215495445,-56.01086418641961 l-20.385221215495445,-28.389068149281172 l5.488328788787237,23.01816336428203 c13.328798487054716,58.31268052284781 13.328798487054716,73.6581227657025 0.7840469698267432,92.07265345712813 c-15.680939396534958,23.785435476424766 -27.441643943936178,23.785435476424766 -54.883287887872356,3.0690884485709375 c-26.65759697410943,-19.949074915711094 -34.49806667237691,-13.810898018569219 -17.249033336188454,12.27635379428375 c18.0330803060152,26.854523924995704 47.04281818960487,39.130877719279454 71.34827425423406,29.92361237356664 zm172.49033336188455,-133.50534751283578 c-16.464986366361707,-17.64725857928289 -28.225690913762925,-19.18180280356836 -41.55448940081764,-6.138176897141875 c-6.2723757586139826,6.138176897141875 -6.2723757586139826,13.043625906426485 0,24.5527075885675 c13.328798487054716,25.319979700710235 24.305456064629187,28.389068149281172 40.77044243099089,12.27635379428375 c14.896892426708211,-14.578170130711953 14.896892426708211,-15.345442242854688 0.7840469698267432,-30.690884485709375 z" id="svg_43" fill="#ee0979" filter=""/>
<path d="M3535.5569475822576,-4207.565144434768 c-16.464986366361707,-9.974537457855547 -29.793784853416422,-19.18180280356836 -29.793784853416422,-20.71634702785383 c0,-0.7672721121427346 -5.488328788787237,-29.156340261423907 -11.760704547401218,-62.91631319570422 c-14.112845456881463,-69.82176220498883 -10.192610607747723,-103.58173513926914 11.760704547401218,-103.58173513926914 c7.840469698267479,0 21.169268185322196,-8.439993233570078 29.793784853416422,-19.18180280356836 c17.249033336188454,-21.483619139996563 36.850207581857156,-25.319979700710235 43.12258334047114,-8.439993233570078 c7.840469698267479,18.414530691425625 -3.1361878793069917,46.03632672856406 -25.089503034455934,63.683585307846954 l-20.385221215495445,17.64725857928289 l20.385221215495445,76.72721121427344 c10.976657577574471,42.19996616785039 18.0330803060152,76.72721121427344 15.680939396534958,75.9599391021307 c-2.352140909480244,0 -18.0330803060152,-8.439993233570078 -33.71401970255016,-19.18180280356836 z" id="svg_45" fill="#ee0979" filter=""/>
<path d="M2743.6695080572426,-4265.877824957615 l-68.99613334475382,-66.75267375641789 l0,-49.872687289277735 c0,-60.61449685927602 10.192610607747723,-73.6581227657025 58.8035227370061,-73.6581227657025 c68.99613334475382,0 93.301589409383,23.01816336428203 54.883287887872356,52.17450362570594 c-31.361878793069916,24.5527075885675 -25.87355000428268,52.94177573784867 23.521409094802436,123.53081005498024 c23.521409094802436,33.75997293428031 43.12258334047114,62.91631319570422 43.12258334047114,65.21812953213242 c0,1.5345442242854692 -9.408563637920976,6.138176897141875 -21.169268185322196,9.974537457855547 c-20.385221215495445,6.138176897141875 -27.441643943936178,1.5345442242854692 -90.16540153007601,-60.61449685927602 z" id="svg_47" fill="#ee0979" filter=""/>
</g></g></svg>