<?xml version="1.0" encoding="utf-8"?>
<!-- Generator: Adobe Illustrator 23.0.2, SVG Export Plug-In . SVG Version: 6.00 Build 0)  -->
<svg version="1.1" id="Layer_1" xmlns="http://www.w3.org/2000/svg" xmlns:xlink="http://www.w3.org/1999/xlink" x="0px" y="0px"
	 viewBox="0 0 1041.3 554.2" style="enable-background:new 0 0 1041.3 554.2;" xml:space="preserve">
<style type="text/css">
	.st0{opacity:0.1;fill:#B84F38;enable-background:new    ;}
	.st1{opacity:0.1;}
	.st2{fill:#B84F38;}
	.st3{fill:#65617D;}
	.st4{fill:#3F3D56;}
	.st5{opacity:0.1;enable-background:new    ;}
	.st6{fill:#D4DFEC;}
	.st7{fill:#FBBEBE;}
	.st8{fill:url(#SVGID_1_);}
	.st9{fill:none;stroke:#B84F38;stroke-width:2;stroke-miterlimit:10;}
</style>
<title>programming</title>
<path class="st0" d="M961.5,438.2c-1.2,2.5-2.3,5-3.5,7.4c-1.8,3.8-3.6,7.5-5.3,11.1c-0.8,1.6-1.6,3.2-2.3,4.8
	c-8.6,17.6-16.6,33.1-23.5,45.9c-12.6,23.6-37.1,38.4-63.8,38.7l-151.6,1.7h-1.6l-13,0.1l-11.1,0.1l-34.1,0.4h-1.4l-17.4,0.2h-0.5
	l-107,1.2l-95.5,1l-11.1,0.1l-69,0.8h-0.1l-44.8,0.5h-0.5l-141.5,1.5l-42.3,0.5c-9,0.1-18-1.2-26.7-3.8c-15-4.5-28.6-13.1-39.1-24.8
	c-18.2-20-31.4-43.4-40.3-68.8c-1.3-3.7-2.5-7.4-3.6-11.1c-30.8-104.2,6.8-238.5,74.4-328.4c2.8-3.8,5.7-7.4,8.6-11l0.1-0.1
	c20.8-25.5,44.1-46.8,68.9-62c44-26.9,92.8-34.5,140.7-11.9c40.6,19.1,78.5,28.1,115.2,30.6c3.7,0.2,7.4,0.4,11.1,0.5
	C514.1,65.9,593,35.6,685.8,16c3.7-0.8,7.4-1.6,11.1-2.3C763,0.5,836.4-6.4,923.6,8.2c9.1,1.5,18,3.6,26.8,6.4
	c3.8,1.2,7.6,2.6,11.1,4c41.6,16.9,64.3,48.2,74,87.5c0.9,3.6,1.7,7.3,2.4,11.1C1055,211.5,1004.8,345.3,961.5,438.2z"/>
<g class="st1">
	<path class="st2" d="M162.9,44.1v509.6l-42.3,0.5c-9,0.1-18-1.2-26.7-3.8V106.1H94C114.8,80.5,138.1,59.2,162.9,44.1z"/>
	<path class="st2" d="M1037.9,117.2H85.3c2.8-3.8,5.7-7.4,8.6-11v-0.1h941.6C1036.4,109.7,1037.2,113.4,1037.9,117.2z"/>
	<path class="st2" d="M961.5,18.6v427H958c-1.8,3.8-3.6,7.5-5.3,11.1c-0.8,1.6-1.6,3.2-2.3,4.8V14.6
		C954.2,15.8,957.9,17.1,961.5,18.6z"/>
	<path class="st2" d="M696.9,13.7v534.3l-11.1,0.1V15.9C689.4,15.2,693.1,14.4,696.9,13.7z"/>
	<path class="st2" d="M429.9,63.2v487.6l-11.1,0.1V62.7C422.5,62.9,426.2,63.1,429.9,63.2z"/>
	<path class="st2" d="M958,445.6c-1.8,3.8-3.6,7.5-5.3,11.1H14.5c-1.3-3.7-2.5-7.4-3.6-11.1H958z"/>
</g>
<polygon class="st3" points="863.1,533.7 863.1,546.7 711.2,548 709.6,548.1 651.8,548.6 650.4,548.6 632.9,548.8 632.4,548.8 
	525.4,549.8 349.8,551.4 349.6,551.4 305,551.8 304.5,551.8 106.1,553.7 106.1,538.7 152.8,510.6 246.4,509.9 248.4,509.9 
	249,509.9 251,509.8 296,509.5 298,509.4 298.6,509.4 300.6,509.4 315,509.3 315.4,509.3 350.9,509 351.2,509 628.6,506.6 
	635.4,506.6 636.1,506.6 641.3,506.5 678.9,506.2 680.9,506.2 682.8,506.2 683.7,506.2 695.5,506.1 697.8,506.1 700.9,506 
	710.6,506 726.1,505.8 728.1,505.8 731.6,505.8 732.2,505.8 806.9,505.1 "/>
<path class="st4" d="M296.1,483.7v24.5c0,2.4-1.4,4.5-3.5,5.5c-0.8,0.4-1.6,0.6-2.5,0.6l-34.9,0.7c-0.9,0-1.9-0.2-2.7-0.6
	c-2.2-1-3.6-3.2-3.6-5.6v-25.2H296.1z"/>
<path class="st5" d="M296.1,483.7v24.5c0,2.4-1.4,4.5-3.5,5.5c-0.8,0.4-1.6,0.6-2.5,0.6l-34.9,0.7c-0.9,0-1.9-0.2-2.7-0.6
	c-2.2-1-3.6-3.2-3.6-5.6v-25.2H296.1z"/>
<path class="st4" d="M298.1,483.7v24.5c0,2.4-1.4,4.5-3.5,5.5c-0.8,0.4-1.6,0.6-2.5,0.6l-34.9,0.7c-0.9,0-1.9-0.2-2.7-0.6
	c-2.2-1-3.6-3.2-3.6-5.6v-25.2H298.1z"/>
<rect x="680.9" y="483.7" class="st4" width="47.2" height="31.5"/>
<rect x="680.9" y="483.7" class="st5" width="47.2" height="31.5"/>
<rect x="678.9" y="483.7" class="st4" width="47.2" height="31.5"/>
<polygon class="st5" points="298.1,483.6 298.1,488.6 250.9,489.9 250.9,483.6 "/>
<path class="st3" d="M381.4,312.4v168.2c0,2.1-1.7,3.9-3.9,4l-191.6,5.1h0c-2.2,0-3.9-1.8-4-4V312.4c0-2.2,1.8-3.9,4-4h191.6
	C379.6,308.4,381.3,310.2,381.4,312.4z"/>
<path class="st5" d="M185.9,308.4v181.2h0c-2.2,0-3.9-1.8-4-4V312.4C181.9,310.2,183.6,308.4,185.9,308.4L185.9,308.4z"/>
<polygon class="st6" points="194.6,319.1 372.1,319.1 372.1,467.4 194.6,471.4 "/>
<polygon class="st5" points="726.1,483.6 726.1,490.1 678.9,488.8 678.9,483.6 "/>
<path class="st3" d="M788.3,312.4v173.3c0,2.2-1.8,4-4,4l0,0l-191.7-5.1c-2.1-0.1-3.8-1.8-3.8-4V312.4c0-2.2,1.8-3.9,3.9-4h191.6
	C786.5,308.4,788.3,310.2,788.3,312.4z"/>
<path class="st5" d="M788.3,312.4v173.3c0,2.2-1.8,4-4,4l0,0V308.4l0,0C786.5,308.4,788.3,310.2,788.3,312.4z"/>
<polygon class="st6" points="775.6,319.1 598.1,319.1 598.1,467.4 775.6,471.4 "/>
<path class="st3" d="M583.8,312.4v168.2c0,2.1-1.7,3.9-3.8,4l-191.6,5.1l0,0c-2.2,0-4-1.8-4-4V312.4c0-2.2,1.8-3.9,4-4h191.6
	C582.1,308.4,583.8,310.2,583.8,312.4z"/>
<polygon class="st6" points="397.1,319.1 574.6,319.1 574.6,467.4 397.1,471.4 "/>
<polygon class="st5" points="863.1,533.7 863.1,546.7 711.2,548 709.6,548.1 651.8,548.6 650.4,548.6 632.9,548.8 632.4,548.8 
	525.4,549.8 349.8,551.4 349.6,551.4 305,551.8 304.5,551.8 106.1,553.7 106.1,538.7 308.6,537.3 309.1,537.3 350.1,537 350.3,537 
	633.3,535.2 633.6,535.2 633.8,535.2 634.3,535.2 639.1,535.1 640.5,535.1 715,534.6 719.4,534.6 720.4,534.6 "/>
<circle class="st7" cx="501.4" cy="298.3" r="51.1"/>
<linearGradient id="SVGID_1_" gradientUnits="userSpaceOnUse" x1="604.8785" y1="-171.44" x2="604.8785" y2="152.43" gradientTransform="matrix(1 0 0 -1 -79.34 383.09)">
	<stop  offset="0" style="stop-color:#808080;stop-opacity:0.25"/>
	<stop  offset="0.54" style="stop-color:#808080;stop-opacity:0.12"/>
	<stop  offset="1" style="stop-color:#808080;stop-opacity:0.1"/>
</linearGradient>
<path class="st8" d="M341.9,554.2c0-0.1,0.1-0.2,0.1-0.3c0.9-3.1,2.4-8.3,3.5-12.5c0.1-0.5,0.3-1,0.4-1.5c1.3-4.7,3.7-15.7,5.1-22.5
	c0.5-2.4,0.9-4.3,0.9-5.2c0.2-1.5,2.8-7.7,5.7-14.8c2.1-5,4.3-10.5,5.9-15.1c1.1-2.7,1.9-5.6,2.5-8.5c0.1-0.6,0.1-1.2,0-1.8
	c-0.3-1-0.4-2-0.4-3l0,0c-0.2-5.3,1.4-13.7,3.8-17.3c3-4.3,5.1-20.3,5.1-20.3s4.4,0.6,5.1-3c0.1-0.4,0.1-0.8,0.1-1.2
	c0-0.3,0-0.6-0.1-1c-0.8-5.4,12.6-11.1,20.2-12.3c0.9-0.1,1.7-0.2,2.6-0.2c1.8-0.2,3.6-0.6,5.4-1.2c0.8-0.2,1.7-0.5,2.6-0.9
	c3.2-1.1,6.9-2.5,10.9-4c15.1-5.8,33.3-13.7,33.3-13.7c0.1-0.6,0.3-1.2,0.4-1.8c1.8-7.3,7-13.4,14-16.2l0,0c0-0.6,0-1.1,0-1.7
	c0-3-0.1-6-0.3-9c0-0.6-0.1-1.2-0.1-1.8c0-0.2,0-0.4,0-0.5c0-0.2,0-0.3,0-0.4c0-0.6-0.1-1.2-0.1-1.8l-0.2-0.1
	c-1.3-1-2.5-2.2-3.3-3.6c-0.5-0.8-0.9-1.7-1.2-2.6c-1.1-2.9-1.3-6.2-2-9.2l-0.2-0.6c-0.9-3.1-2.1-6.1-3.4-9.1
	c-1.9-4.7-3.4-9.4-4.8-14.3c-0.9-2.9-1.8-5.9-2.7-8.8l-1.4-4.5c-0.3-0.9-0.5-1.7-0.7-2.6l0,0c-0.1-0.4-0.2-0.8-0.2-1.2l0,0
	c-0.2-1.3-0.2-2.7,0.2-4c0.3-0.9,0.7-1.7,1.1-2.6c0.2-0.4,0.3-0.8,0.4-1.2l0,0c0-0.1,0.1-0.2,0.1-0.3c0.1-0.3,0.1-0.6,0.1-0.9
	c0-1.1-0.2-2.2-0.4-3.3c0,0,0,0,0,0c0-0.1,0-0.2,0-0.2c-0.2-0.9-0.3-1.7-0.3-2.6c-0.3-4.6,0.7-9.3,3-13.4l0.2-0.3
	c0.5-0.8,1-1.6,1.6-2.4l0,0c0.3-0.4,0.5-0.7,0.9-1c-1.2,1.1-3.2,0.6-4.3-0.6c-0.2-0.2-0.3-0.4-0.5-0.6c-0.1-0.1-0.1-0.3-0.2-0.4
	c0-0.1-0.1-0.2-0.1-0.3c-0.6-2.1,0.4-4.3,1.8-6c1.4-1.7,3-3,4.9-4l0,0c0.1-0.1,0.2-0.1,0.3-0.2c0.7-0.4,1.5-0.7,2.3-0.9l0,0
	c0.5-0.2,0.9-0.3,1.4-0.4l-3.2-0.3l-1.3-0.1c1.3-5.2,5.8-9,11.2-9.4h0.9c0.5,0,0.9,0,1.3,0.1c-1.5-0.6-2.4-2.1-2.3-3.7
	c2.2,1.8,5,2.7,7.9,2.6h0.3c-0.1-0.9-0.2-1.9-0.3-2.8l0,0l0,0l0,0c-0.1-1.3-0.1-2.6,0-3.8c1.6,1.5,3.7,2.2,5.8,1.9l-1.8-2.5
	c1.6,1.3,3.6,1.9,5.6,1.8l0.4,0c0.3,0,0.7-0.1,1-0.2h0.1c-0.2-0.2-0.3-0.4-0.5-0.6l-0.1-0.1c-0.4-0.6-0.6-1.2-0.9-1.8
	c-0.1-0.2-0.2-0.5-0.2-0.7l0,0c-0.4-1.6-0.2-3.2,0.4-4.7c2.8,2.3,5.8,5.5,9.4,3.1c3.6-2.4,3.7-6.8,9.4-6.3c3.2,0.3,6,2.3,7.2,5.3
	c1.6-1.9,4.3-2.5,6.6-1.5c2.2,1.1,3.6,3.4,3.3,5.9c2.4-0.6,4.9-1.2,7.2-0.3c2.3,0.9,3.7,3.8,2.4,5.7c0,0.1-0.1,0.1-0.1,0.2
	c-1.1,1.4-3.4,2.1-3.1,3.8l0.4,0.3l1.1,0.8l0,0c4.4,3.2,8.6,6.5,12.8,10c2.1,1.8,4.4,3.9,4.5,6.7c0,0.7,0,1.4-0.2,2l0,0
	c-0.1,0.7-0.3,1.3-0.5,2c-0.4,1.7-0.5,3.5-0.3,5.2l0,0c0.1,0.5,0.1,1,0.2,1.5c1.3,6.6,6.6,12.1,7.1,18.9v0.5c0,0.7,0,1.4-0.1,2.2
	c-0.4,4.1-2.3,8.1-3.8,12c-0.1,0.2-0.2,0.5-0.3,0.7c-3,7.7-4.7,16-6,24.2c-0.4,2.9-1,5.8-1.7,8.7c-0.8,3.3-2.3,6.3-4.4,8.9
	c-0.8,1-1.8,1.9-2.9,2.6c-0.7,0.5-1.5,0.9-2.3,1.2c0,0,0,0,0,0.1c0.1,0.5,0.2,1,0.3,1.6c0.1,0.3,0.1,0.5,0.1,0.9l0,0c0,0,0,0,0,0.1
	c0.7,4.1,1.5,8,2.4,11.8l0.4,1.9c10.8,3.9,12.1,11.9,12.2,15c0,0.4,0,0.8,0,1.2c0,0,16.3,0.4,22.7,5.1c1.2,0.8,2.5,1.5,3.9,2
	c2.6,1,5.2,1.8,7.9,2.5c1.4,0.4,2.8,0.7,4.3,1.1c2.6,0.6,5.3,1.2,7.9,1.7c7,1.4,13.6,2.6,17,3.4c8,2,26.3,19.6,26.3,19.6
	s2.1,17.7,4.3,20.3c2.1,2.6,6,11.7,6,11.7l14.2,25.2l6,10.6h3.9c0.5,0,1.6,0.8,2.8,1.8c1,0.9,2.2,2,3.1,3.1l1.6,1.8l1,1.1
	c0,0,6.2,0.2,7.9,5.1c5.1-0.1,11.3,0.2,15.7,2.1c0.6,0.3,1.2,0.6,1.7,0.9c1.8,1,3.1,2.8,3.5,4.9c0.1,0.4,0.1,0.8,0.2,1.2
	c0,0.5,0,1,0,1.5c-0.3,6.5-4.5,11.9-8.4,15.5l0.3,0.5c0,0-0.1,0.3-0.4,0.9c-0.1,0.2-0.2,0.3-0.2,0.5l0,0c-0.5,1.1-1.3,2.7-2.4,4.6
	c-2.2,4.1-5,7.9-8.2,11.3l-0.2,0.3l-49.5,0.5l-0.1-0.2l-9.6-11.5l-4.8-5.7l-0.1-0.2l-0.1,1.4l-0.5,4.5l-1.1,11l-0.1,0.5v0.1
	l-0.1,1.3l0.1-1.3h-0.2l-91.8,0.9l-150.7,1.7v0.7h-0.1v-0.7l-38.4,0.4L341.9,554.2z"/>
<path class="st7" d="M544.5,392.9c0,0-85.3,10.3-77.2,0c2.9-3.7,3.8-14.7,3.6-27.3c-0.1-3.8-0.2-7.8-0.4-11.7
	c-0.9-18.9-3.2-37.3-3.2-37.3s74.6-35.2,66-7.3c-3.4,11.3-2.3,27.1,0.3,41.9c0.8,4.3,1.6,8.6,2.6,12.6
	C538.4,373.7,541.2,383.4,544.5,392.9z"/>
<path class="st5" d="M544.6,401c0,0-85.6,10.3-77.5,0c3-3.7,3.8-14.8,3.6-27.4c13.1-5.6,29.7-1.4,29.7-1.4
	c17.5-3.5,28.7-2.8,35.9-0.4C538.6,381.7,541.3,391.4,544.6,401z"/>
<path class="st2" d="M381.3,552.7V552l151.1-1.6l92.1-0.9h0.3l-0.1,1.3l0.1-1.3h0.2v-0.1l1.2-11.6l0.4-4.4l0.1-1.4l0.1-1.1l5.3-17.7
	l5.3-17.7l4.5-14.9l6.8-22.8c0,0-3.9-9-6-11.6c-2.2-2.6-4.3-20.2-4.3-20.2s-18.4-17.5-26.4-19.5c-3.4-0.9-10-2-17.1-3.4
	c-2.6-0.5-5.4-1.1-8-1.7c-1.5-0.3-2.9-0.7-4.3-1c-2.7-0.7-5.4-1.5-8-2.5c-1.4-0.5-2.7-1.2-3.9-2c-6.3-4.6-22.2-5.2-22.8-5.2l0,0
	c0,0,0,0,0-0.1v-0.1c0-0.4,0-0.7,0-1.1c0-0.3,0-0.7-0.1-1.2c0-0.1,0-0.3-0.1-0.4c0-0.3-0.1-0.6-0.2-1c0-0.2-0.1-0.3-0.1-0.5
	c-0.2-1-0.6-2-1.1-3c-0.1-0.1-0.1-0.3-0.2-0.4c-0.4-0.8-0.9-1.6-1.5-2.3c-0.1-0.1-0.2-0.3-0.4-0.4c-0.7-0.8-1.5-1.6-2.3-2.3
	c-0.2-0.2-0.5-0.4-0.7-0.5c-0.1-0.1-0.3-0.2-0.4-0.3l-0.8-0.5l-0.7-0.4c-0.6-0.3-1.3-0.7-2-1c-0.2-0.1-0.5-0.2-0.7-0.3
	c-0.2-0.1-0.6-0.2-0.9-0.4h-0.1l-0.6-0.3c-0.5-0.2-1-0.3-1.5-0.5l-0.8-0.2l-0.9-0.2l-0.9-0.2c-0.9-0.2-1.8-0.3-2.7-0.4l-1-0.1
	l-1-0.1l-1-0.1l-1.5-0.1l-1.7-0.1c-7.6,0-15.2,0.8-22.6,2.4c-5.2-1.1-10.4-1.6-15.7-1.4h-0.7l-0.9,0.1h-0.6l-1.1,0.1
	c-0.4,0-0.7,0.1-1.1,0.1c-0.4,0.1-0.8,0.1-1.1,0.2l-0.6,0.1c-0.6,0.1-1.1,0.2-1.7,0.3c-0.2,0-0.4,0.1-0.6,0.1
	c-0.7,0.2-1.5,0.4-2.2,0.6c-0.4,0.1-0.7,0.2-1.1,0.4c-0.2,0.1-0.4,0.1-0.6,0.2l-0.6,0.2l-0.5,0.2l-0.6,0.3c-0.3,0.1-0.6,0.3-1,0.4
	c-0.2,0.1-0.4,0.2-0.5,0.3c-0.2,0.1-0.4,0.2-0.5,0.3c-1.9,1-3.7,2.3-5.3,3.8l-0.4,0.4l-0.4,0.4c-0.1,0.1-0.3,0.3-0.4,0.5
	c-0.6,0.6-1.1,1.3-1.6,1.9c-0.1,0.2-0.3,0.4-0.4,0.6c-0.5,0.8-1,1.6-1.5,2.5c-0.1,0.2-0.2,0.4-0.3,0.6c-0.7,1.5-1.3,3-1.7,4.5
	c-0.2,0.6-0.3,1.1-0.4,1.7c-0.2,0.9-18.2,8-33.3,13.9c-4,1.5-7.8,3-11,4c-0.9,0.3-1.8,0.6-2.6,0.9c-1.7,0.6-3.5,1-5.4,1.2
	c-0.9,0-1.7,0.1-2.6,0.2c-6.9,1.1-18.8,6-20.1,10.9c-0.1,0.4-0.1,0.8-0.1,1.2c0,0,0,0.1,0,0.1c0.9,6-5.2,5.2-5.2,5.2
	s-2.2,15.9-5.2,20.2c-2.2,3.1-3.7,10-3.9,15.2l0,0c-0.1,1.6,0,3.3,0.4,4.8c0,0,0,0.1,0,0.1c0.3,1.2-0.5,4.3-1.9,8.3
	c-1.5,4.4-3.7,9.9-5.9,15.1c-3.2,7.8-6.2,15-6.4,16.5c-0.1,0.7-0.3,1.9-0.6,3.6c-1.3,6.6-4,19-5.4,24.1c-1,3.8-2.5,8.9-3.5,12.5
	c0,0.1-0.1,0.2-0.1,0.3l38.6-0.4L381.3,552.7L381.3,552.7L381.3,552.7z"/>
<path class="st5" d="M435.4,451.2c0,0,49.1,25.4,66.7,22.4L435.4,451.2z"/>
<path class="st5" d="M535.2,440.9c0,0,47.8,15.5,63.7,17.6C614.8,460.7,535.2,440.9,535.2,440.9z"/>
<path class="st5" d="M561,390.9c-28.9,5.3-83.2,4.2-106.7,3.4c8.6-30.8,50.6-20.4,50.6-20.4C556.9,363.5,560.9,385,561,390.9z"/>
<path class="st2" d="M560.5,392.4c-28.9,5.3-83.2,4.2-106.7,3.4c8.6-30.8,50.6-20.4,50.6-20.4C556.4,365.1,560.4,386.6,560.5,392.4z
	"/>
<path class="st7" d="M683.7,506c0,0,29.4-4.5,30,8.4c0.6,12.9-15,21.9-15,21.9L683.7,506z"/>
<path class="st5" d="M539,357.4c-1.5,0.7-3,1.2-4.5,1.7c-10.7,3.7-21.5,7.4-32.8,8.8c-11.3,1.4-23.1,0.2-33-5.5c-1-0.6-2-1.2-3-1.9
	c-1.1-21.9-3.7-43.3-3.7-43.3s86.6-40.8,76.6-8.5C534.6,321.8,536,340.2,539,357.4z"/>
<path class="st4" d="M487.5,242.3c-2.5,0.7-5.1,0.1-7.2-1.5l1.8,2.5c-2.1,0.2-4.3-0.5-5.8-1.9c-0.2,2.2-0.1,4.5,0.3,6.7
	c-3,0.1-5.9-0.8-8.2-2.6c-0.1,1.6,0.8,3.1,2.3,3.7c-6.2-0.7-11.9,3.2-13.4,9.2l4.5,0.4c-3.5,0.8-6.7,2.7-9,5.5
	c-1.4,1.7-2.4,3.9-1.8,6c0.6,2.1,3.5,3.4,5.1,1.9c-4.6,5.4-6.5,12.6-5.2,19.6c0.4,1.5,0.5,3,0.4,4.5c-0.3,1.4-1.2,2.7-1.6,4
	c-0.9,2.5,0,5.2,0.7,7.7l4,13.3c1.5,4.8,2.9,9.6,4.8,14.2c1.4,2.9,2.5,6,3.4,9c1.1,4.2,1.1,8.7,3.4,12.4c1.6,2.3,3.7,4.2,6.2,5.4
	c8.5,4.9,18.8,5.9,28.5,4.7c9.7-1.2,19.1-4.4,28.4-7.6c2.1-0.6,4-1.5,5.9-2.6c6.4-4.2,7.8-12.8,9-20.4c1.3-8.4,3.1-16.9,6.3-24.8
	c1.9-4.7,4.3-9.5,3.9-14.6c-0.5-6.7-5.8-12.2-7.2-18.8c-0.4-2.2-0.4-4.5,0.1-6.7c0.4-1.3,0.6-2.7,0.7-4c-0.1-2.8-2.4-4.9-4.6-6.7
	c-4.6-3.9-9.4-7.5-14.3-11c-0.2-1.7,2.1-2.5,3.1-3.8c1.5-1.9-0.1-5-2.3-5.9s-4.8-0.3-7.2,0.3c0.4-3.1-1.8-5.9-4.9-6.3
	c-1.9-0.2-3.8,0.5-5,1.9c-1.3-2.9-4.1-4.9-7.2-5.2c-5.7-0.4-5.8,3.9-9.5,6.3c-3.6,2.4-6.7-0.8-9.5-3.1
	C485.3,237.1,485.7,240.1,487.5,242.3z"/>
<path class="st2" d="M711.5,532.8c0,0-0.8,1.8-2.2,4.5c-2.1,4.1-4.7,7.9-7.7,11.3l-0.2,0.2h-1.4l-49.7,0.5H649l-0.1-0.2l-9.6-11.4
	l-3.6-4.3l-0.1-0.2l-0.3-0.4l-0.2-0.2l-0.2-0.3l-7.1-8.4l2.6-10.8l4.4-18.1l0.1-0.4l0.9-3.4l0.6-2.6l2-8.4l7-29l12.5,6.5l13.2,23.2
	l7.1,12.5h3.9c0.7,0,2.4,1.4,4.1,3c0.6,0.6,1.2,1.2,1.7,1.7c1.5,1.6,2.7,2.9,2.7,2.9s6.3,0.1,8,5.1c0.1,0.2,0.2,0.5,0.2,0.7
	c0.6,1.9,1.3,3.8,2.2,5.6c1.1,2.4,2.5,5.2,3.9,7.9c2.6,5,5.3,9.8,6.3,11.6l0.1,0.2L711.5,532.8z"/>
<path class="st5" d="M668.5,495.9l-0.1,1.2v0.1l-0.1,2l-1.2,15.9l-1.4,19.2l-0.4,5.4l-0.9,11.6v0.1l-92.6,0.9l-152,1.6v0.7h-0.1V554
	v-0.2l0.4-12.4l0.7-24.1l0.6-20.5l0.1-2c0.2-5,4.4-8.9,9.4-8.8c0.2,0,0.3,0,0.5,0c4.1,0.3,9.4,0.8,15.7,1.2l2.6,0.2
	c36.6,2.5,104.4,5.8,172.7,1.7c1.4-0.1,2.9-0.2,4.3-0.3c10.6-0.7,21.2-1.5,31.7-2.6c5-0.5,9.5,3.1,10,8.1
	C668.6,494.8,668.6,495.4,668.5,495.9L668.5,495.9z"/>
<path class="st4" d="M421.3,552.7V552l151.1-1.6l92.1-0.9h0.3v-0.1l0.9-11.6l0.4-5.2l1.4-19.5l1.1-15.4v-0.4c0.1-0.7,0-1.4-0.1-2.1
	c0,0,0-0.1,0-0.1c-0.2-1.5-0.8-2.8-1.7-4c-1.9-2.5-5-3.8-8.1-3.4c-10.4,1.1-20.9,1.9-31.5,2.6c-1.4,0.1-2.9,0.2-4.3,0.3
	c-67.9,4-135.3,0.8-171.7-1.7l-2.6-0.2c-6.3-0.4-11.6-0.9-15.6-1.2c-4.6-0.4-8.8,2.8-9.7,7.3c-0.1,0.5-0.1,0.9-0.2,1.4l-0.6,19.1
	l-0.8,24.2l-0.4,12.4v0.2L421.3,552.7L421.3,552.7z"/>
<path class="st5" d="M669.3,492.1l-1.1,13.3l-1.6,19.8l-0.4,4.9l-0.9,11.1l-0.1,0.6v0.1l0,0l-0.1,1.3l0.1-1.3h-0.3l-92.6,0.9
	l-152,1.6v-0.2l0.4-12.4l0.9-24.3l0.6-16.1c0.1-1.9,1.1-3.6,2.6-4.5c1-0.6,2.1-0.9,3.3-0.8c1.8,0.1,4,0.3,6.7,0.5
	c4.2,0.3,9.4,0.7,15.5,1.1c11.2,0.7,25.4,1.5,41.5,2.1c45,1.7,105.7,2.3,163.4-2.7c2.6-0.2,5.3-0.5,7.9-0.7c1-0.1,2.1,0.1,3,0.6
	c0.3,0.1,0.5,0.3,0.7,0.5c0.8,0.5,1.3,1.3,1.7,2.1c0.1,0.2,0.2,0.3,0.2,0.5C669.3,490.6,669.4,491.3,669.3,492.1z"/>
<path class="st5" d="M298.1,505v3.2c0,2.4-1.4,4.5-3.5,5.5l-40.1,0.8c-2.2-1-3.6-3.2-3.6-5.6v-3L298.1,505z"/>
<polygon class="st4" points="298.6,515.6 246.4,516.6 246.4,507.9 298.6,506.9 "/>
<polygon class="st5" points="298.6,515.6 246.4,516.6 246.4,507.9 298.6,506.9 "/>
<polygon class="st4" points="300.6,515.6 248.4,516.6 248.4,507.9 300.6,506.9 "/>
<g class="st1">
	<path d="M488.3,238.5c-0.9-1.1-1.4-2.4-1.7-3.8c-0.2,1.4-0.1,2.8,0.4,4.1C487.5,238.7,487.9,238.6,488.3,238.5z"/>
	<path d="M477.1,244.3c-0.2-1.1-0.3-2.2-0.3-3.3c0,1.1,0,2.2,0,3.3L477.1,244.3z"/>
	<path d="M548.9,273.7c0-0.8,0.2-1.6,0.3-2.3c0.4-1.3,0.7-2.7,0.7-4.1c0-0.3-0.1-0.6-0.1-0.9c-0.1,0.8-0.4,1.6-0.6,2.4
		C548.9,270.4,548.8,272,548.9,273.7z"/>
	<path d="M530.6,246.5l1,0.7c0.8-0.6,1.6-1.2,2.3-2c0.7-0.9,0.8-2.2,0.3-3.2c-0.1,0.2-0.2,0.4-0.3,0.6
		C532.7,244,530.3,244.7,530.6,246.5z"/>
	<path d="M458.2,255c-0.3,0.6-0.6,1.3-0.8,2c1.4-0.8,2.9-1.3,4.4-1.7L458.2,255z"/>
	<path d="M470.4,245.4c-0.6-0.3-1.1-0.7-1.7-1.1c0,0.3,0,0.7,0.1,1C469.3,245.3,469.8,245.3,470.4,245.4z"/>
	<path d="M556.5,297.3c-0.4,4.3-2.4,8.4-4,12.4c-3.2,8.1-5.1,16.7-6.4,25.4c-1.2,7.7-2.6,16.5-9.2,20.8c-1.9,1.1-3.9,2-6,2.6
		c-9.5,3.3-19.1,6.6-29.1,7.8c-10,1.2-20.5,0.1-29.2-4.8c-2.5-1.3-4.7-3.2-6.3-5.6c-2.4-3.7-2.4-8.4-3.5-12.7
		c-1-3.2-2.1-6.3-3.5-9.3c-1.9-4.7-3.4-9.7-4.9-14.6c-1.4-4.5-2.8-9.1-4.1-13.6c-0.5-1.4-0.8-2.8-1-4.2c-0.3,2.3,0.3,4.6,1,6.8
		c1.4,4.5,2.8,9.1,4.1,13.6c1.5,4.9,3,9.8,4.9,14.6c1.4,3,2.6,6.1,3.5,9.3c1.1,4.3,1.2,8.9,3.5,12.7c1.6,2.3,3.8,4.3,6.3,5.6
		c8.7,5,19.2,6,29.2,4.8c10-1.2,19.5-4.5,29.1-7.8c2.1-0.6,4.1-1.5,6-2.6c6.6-4.3,8-13.1,9.2-20.8c1.4-8.6,3.2-17.3,6.4-25.4
		c1.9-4.8,4.4-9.7,4-14.9C556.5,297.4,556.5,297.3,556.5,297.3z"/>
	<path d="M451.1,293.9C451.1,293.9,451.1,293.8,451.1,293.9c0.2-1.6,0-3.2-0.4-4.7c-0.2-1-0.3-1.9-0.3-2.9c-0.1,1.9,0,3.7,0.3,5.6
		C450.8,292.5,451,293.2,451.1,293.9z"/>
	<path d="M453.7,272.3c0.7-1.1,1.4-2.2,2.3-3.2c-1.6,1.5-4.6,0.2-5.2-2c-0.2,0.9-0.2,1.8,0,2.6C451.3,271.1,452.4,272.1,453.7,272.3
		z"/>
</g>
<path class="st5" d="M684.1,483.7c0,0,3.2,11.5,0,21.5C680.9,515.2,684.1,483.7,684.1,483.7z"/>
<path class="st5" d="M720.7,503.5c0,0,1.1,12.6-1.4,14.8C716.6,520.5,720.7,503.5,720.7,503.5z"/>
<line class="st9" x1="199" y1="342.9" x2="300.6" y2="341.9"/>
<line class="st9" x1="199" y1="355.3" x2="300.6" y2="354.3"/>
<line class="st9" x1="199" y1="367.8" x2="300.6" y2="366.8"/>
</svg>
