<svg xmlns="http://www.w3.org/2000/svg" xmlns:xlink="http://www.w3.org/1999/xlink" version="1.1" enable-background="new 0 0 841.9 595.3" xml:space="preserve" width="491" height="437"><rect id="backgroundrect" width="100%" height="100%" x="0" y="0" fill="none" stroke="none" class="" style=""/>

<g class="currentLayer" style=""><title>Layer 1</title><g id="svg_1" class="">
	<path fill="#61DAFB" d="M490.6000335693359,218.50000762939453 c0,-32.5 -40.7,-63.3 -103.1,-82.4 c14.4,-63.6 8,-114.2 -20.2,-130.4 c-6.5,-3.8 -14.1,-5.6 -22.4,-5.6 v22.3 c4.6,0 8.3,0.9 11.4,2.6 c13.6,7.8 19.5,37.5 14.9,75.7 c-1.1,9.4 -2.9,19.3 -5.1,29.4 c-19.6,-4.8 -41,-8.5 -63.5,-10.9 c-13.5,-18.5 -27.5,-35.3 -41.6,-50 c32.6,-30.3 63.2,-46.9 84,-46.9 l0,-22.3 c0,0 0,0 0,0 c-27.5,0 -63.5,19.6 -99.9,53.6 c-36.4,-33.8 -72.4,-53.2 -99.9,-53.2 v22.3 c20.7,0 51.4,16.5 84,46.6 c-14,14.7 -28,31.4 -41.3,49.9 c-22.6,2.4 -44,6.1 -63.6,11 c-2.3,-10 -4,-19.7 -5.2,-29 c-4.7,-38.2 1.1,-67.9 14.6,-75.8 c3,-1.8 6.9,-2.6 11.5,-2.6 l0,-22.3 c0,0 0,0 0,0 c-8.4,0 -16,1.8 -22.6,5.6 c-28.1,16.2 -34.4,66.7 -19.9,130.1 c-62.2,19.2 -102.7,49.9 -102.7,82.3 c0,32.5 40.7,63.3 103.1,82.4 c-14.4,63.6 -8,114.2 20.2,130.4 c6.5,3.8 14.1,5.6 22.5,5.6 c27.5,0 63.5,-19.6 99.9,-53.6 c36.4,33.8 72.4,53.2 99.9,53.2 c8.4,0 16,-1.8 22.6,-5.6 c28.1,-16.2 34.4,-66.7 19.9,-130.1 C450.1000335693359,281.7000076293945 490.6000335693359,250.9000076293945 490.6000335693359,218.50000762939453 zM360.40003356933596,151.80000762939454 c-3.7,12.9 -8.3,26.2 -13.5,39.5 c-4.1,-8 -8.4,-16 -13.1,-24 c-4.6,-8 -9.5,-15.8 -14.4,-23.4 C333.60003356933595,146.00000762939453 347.30003356933594,148.60000762939453 360.40003356933596,151.80000762939454 zM314.60003356933595,258.30000762939454 c-7.8,13.5 -15.8,26.3 -24.1,38.2 c-14.9,1.3 -30,2 -45.2,2 c-15.1,0 -30.2,-0.7000000000000003 -45,-1.9 c-8.3,-11.9 -16.4,-24.6 -24.2,-38 c-7.6,-13.1 -14.5,-26.4 -20.8,-39.8 c6.2,-13.4 13.2,-26.8 20.7,-39.9 c7.8,-13.5 15.8,-26.3 24.1,-38.2 c14.9,-1.3 30,-2 45.2,-2 c15.1,0 30.2,0.7000000000000003 45,1.9 c8.3,11.9 16.4,24.6 24.2,38 c7.6,13.1 14.5,26.4 20.8,39.8 C329.0000335693359,231.80000762939454 322.10003356933595,245.20000762939452 314.60003356933595,258.30000762939454 zM346.90003356933596,245.30000762939454 c5.4,13.4 10,26.8 13.8,39.8 c-13.1,3.2 -26.9,5.9 -41.2,8 c4.9,-7.7 9.8,-15.6 14.4,-23.7 C338.500033569336,261.4000076293945 342.80003356933594,253.30000762939454 346.90003356933596,245.30000762939454 zM245.50003356933593,352.00000762939453 c-9.3,-9.6 -18.6,-20.3 -27.8,-32 c9,0.4 18.2,0.7000000000000003 27.5,0.7000000000000003 c9.4,0 18.7,-0.2 27.8,-0.7000000000000003 C264.0000335693359,331.7000076293945 254.70003356933591,342.4000076293945 245.50003356933593,352.00000762939453 zM171.10003356933595,293.10000762939455 c-14.2,-2.1 -27.9,-4.7 -41,-7.9 c3.7,-12.9 8.3,-26.2 13.5,-39.5 c4.1,8 8.4,16 13.1,24 C161.40003356933596,277.7000076293945 166.20003356933591,285.50000762939453 171.10003356933595,293.10000762939455 zM245.00003356933593,85.00000762939453 c9.3,9.6 18.6,20.3 27.8,32 c-9,-0.4 -18.2,-0.7000000000000003 -27.5,-0.7000000000000003 c-9.4,0 -18.7,0.2 -27.8,0.7000000000000003 C226.50003356933593,105.30000762939454 235.80003356933594,94.60000762939453 245.00003356933593,85.00000762939453 zM171.00003356933593,143.90000762939454 c-4.9,7.7 -9.8,15.6 -14.4,23.7 c-4.6,8 -8.9,16 -13,24 c-5.4,-13.4 -10,-26.8 -13.8,-39.8 C142.90003356933596,148.70000762939452 156.70003356933591,146.00000762939453 171.00003356933593,143.90000762939454 zM80.50003356933593,269.10000762939455 c-35.4,-15.1 -58.3,-34.9 -58.3,-50.6 c0,-15.7 22.9,-35.6 58.3,-50.6 c8.6,-3.7 18,-7 27.7,-10.1 c5.7,19.6 13.2,40 22.5,60.9 c-9.2,20.8 -16.6,41.1 -22.2,60.6 C98.60003356933595,276.2000076293945 89.20003356933591,272.80000762939454 80.50003356933593,269.10000762939455 zM134.30003356933594,412.00000762939453 c-13.6,-7.8 -19.5,-37.5 -14.9,-75.7 c1.1,-9.4 2.9,-19.3 5.1,-29.4 c19.6,4.8 41,8.5 63.5,10.9 c13.5,18.5 27.5,35.3 41.6,50 c-32.6,30.3 -63.2,46.9 -84,46.9 C141.10003356933595,414.60000762939455 137.30003356933594,413.7000076293945 134.30003356933594,412.00000762939453 zM371.500033569336,335.80000762939454 c4.7,38.2 -1.1,67.9 -14.6,75.8 c-3,1.8 -6.9,2.6 -11.5,2.6 c-20.7,0 -51.4,-16.5 -84,-46.6 c14,-14.7 28,-31.4 41.3,-49.9 c22.6,-2.4 44,-6.1 63.6,-11 C368.6000335693359,316.80000762939454 370.40003356933596,326.50000762939453 371.500033569336,335.80000762939454 zM410.000033569336,269.10000762939455 c-8.6,3.7 -18,7 -27.7,10.1 c-5.7,-19.6 -13.2,-40 -22.5,-60.9 c9.2,-20.8 16.6,-41.1 22.2,-60.6 c9.9,3.1 19.3,6.5 28.1,10.2 c35.4,15.1 58.3,34.9 58.3,50.6 C468.30003356933594,234.20000762939452 445.40003356933596,254.10000762939455 410.000033569336,269.10000762939455 z" id="svg_2"/>
	<polygon fill="#61DAFB" points="145.1000213623047,0.4000091552734375 145.1000213623047,0.4000091552734375 145.1000213623047,0.4000091552734375 " id="svg_3"/>
	<circle fill="#61DAFB" cx="245.2000274658203" cy="218.50000762939453" r="45.70000076293945" id="svg_4"/>
	<polygon fill="#61DAFB" points="344.80003356933594,0.1000061184167862 344.80003356933594,0.1000061184167862 344.80003356933594,0.1000061184167862 " id="svg_5"/>
</g></g></svg>