<svg xmlns="http://www.w3.org/2000/svg" width="100" height="100"><rect id="backgroundrect" width="100%" height="100%" x="0" y="0" fill="none" stroke="none" class="" style=""/><style>.st0{fill:#77bc1f}</style><g class="currentLayer" style=""><title>Layer 1</title><path class="st0 selected" d="M83.37459484544107,13.434527976845686 c-1.1510695500256771,2.7497772583946727 -2.6112225903360264,5.360999848730699 -4.369801069541922,7.7590614112841925 C71.30968067294972,13.498476285180445 60.86479031160559,9.171307421195039 49.982919843307315,9.171307421195039 C27.473115309471865,9.171307421195039 8.949421995169772,27.71631683827539 8.949421995169772,50.258095526278225 C8.949421995169772,61.50233974180685 13.55370019527247,72.26697164482474 21.696451456565228,80.02603305610893 l1.5134432972559826,1.3429144750299564 c7.3966876640538874,6.234960062639083 16.765114835096206,9.66685260993786 26.43196744503406,9.66685260993786 c21.40136718936629,0 39.39215793421205,-16.775772886485328 40.91625928285716,-38.15582397307337 c1.1190953958582972,-10.466206464122358 -1.9504234042101751,-23.703506289417646 -7.183526636271354,-39.445448191157695 zm-55.848189279023586,66.82598220982402 c-0.6607991861258521,0.820669956962751 -1.6733140680928824,1.30028226947345 -2.728461155616419,1.30028226947345 c-1.9291073014319213,0 -3.5064989070226638,-1.5880496569798697 -3.5064989070226638,-3.5171569584117908 s1.5880496569798697,-3.5171569584117908 3.5064989070226638,-3.5171569584117908 c0.7993538541844979,0 1.5880496569798697,0.2771093361172926 2.2062166375492143,0.7886958027953717 c1.5027852458668556,1.215017858360437 1.7372623764276418,3.442550598687904 0.5222445180672053,4.94533584455476 zm55.677660456797554,-12.299391303052142 c-10.125148819670304,13.503751110023453 -31.750335088208256,8.952763166866376 -45.61645994546201,9.6029043016031 c0,0 -2.462009870888253,0.14921271944777298 -4.9346777931656325,0.5542186722345855 c0,0 0.9272504708540172,-0.3943479013976859 2.131610277825328,-0.8526441111301315 c9.730800918272621,-3.389260341742271 14.335079118375328,-4.050059527868123 20.25029763934061,-7.087604173769215 c11.137663701637337,-5.670083339015371 22.147430786605156,-18.076055155958777 24.43891183526738,-30.982955388191133 C75.23184358414835,51.6116680526973 62.37823360886159,62.28037749321308 50.665035132211415,66.61820440858759 c-8.025512696012358,2.962938286177206 -22.52046258522459,5.840612161241397 -22.52046258522459,5.840612161241397 l-0.5861928264019651,-0.30908349028467264 C17.6890241342536,67.3429519030482 17.390598695358065,45.95224276507108 35.32809918325819,39.04582546491699 c7.854983873786332,-3.026886594511965 15.36891010312061,-1.3642305778082098 23.85271900886542,-3.389260341742271 c9.059343680757642,-2.1529263806035805 19.53620819626913,-8.952763166866376 23.799428751919784,-17.82026192261974 c4.7748070223287336,14.185866398927555 10.519496721067993,36.397245493867466 0.2238190791716595,50.12481568306258 z" id="svg_1"/></g></svg>