<svg xmlns="http://www.w3.org/2000/svg" version="1.0" width="150" height="150" preserveAspectRatio="xMidYMid meet" style=""><rect id="backgroundrect" width="100%" height="100%" x="0" y="0" fill="none" stroke="none" class="" style=""/>


<g class="currentLayer" style=""><title>Layer 1</title><g transform="translate(0,512) scale(0.10000000149011612,-0.10000000149011612) " fill="#ee0979" stroke="none" id="svg_1" class="" fill-opacity="1" filter="url(#f197)" opacity="1">
<path d="M708.259532706897,5075.558741135969 c-122.15246483401427,-8.143497655600951 -214.53904168548712,-31.16993930247261 -310.5761519687811,-77.22282259621592 c-63.18230939690393,-30.327508510513887 -114.57058770638581,-67.95608388467002 -164.8356249599227,-120.46760325009683 c-58.40853490913786,-60.655017021027774 -101.934125827005,-139.28189093717486 -122.43327509800054,-221.2784880211569 c-30.327508510513887,-119.3443621941519 -13.478892671339503,-264.5232686750378 44.929642237798355,-385.27168218912084 c23.026441646871664,-47.73774487766076 38.19019590212861,-71.32580705250489 69.07932494061497,-106.42709005078486 l10.951600295463347,-12.35565161539455 l77.78444312418839,83.4006484039132 l78.06525338817464,83.4006484039132 l-8.143497655600951,10.389979767490873 c-19.65671847903678,24.99211349477534 -37.628575374156135,67.11365309271126 -49.98422698955068,116.53625955428947 c-9.82835923951839,39.31343695807356 -12.35565161539455,97.1603513392389 -5.616205279724794,133.38487539346386 c10.951600295463347,59.25096570109657 34.820472734293716,104.18060793889492 78.62687391614712,147.98700912074833 c93.50981790741783,93.50981790741783 268.45461237084504,137.87783961724372 450.98128396190083,114.851397970372 c114.57058770638581,-14.602133727284466 203.86825165401,-53.35395015738555 262.8384070911203,-114.00896717841329 c44.929642237798355,-46.05288329374333 65.42879150879385,-85.6471305158031 75.81877127628475,-146.86376806480337 c6.177825807697275,-35.94371379023867 4.2121539597935955,-99.96845397910135 -3.931343695807355,-129.17272143367026 c-15.163754255256944,-54.4771912133305 -49.98422698955068,-104.7422284668674 -96.87954107525272,-139.84351146514734 c-27.51940587065149,-20.218339007009256 -41.840729333949724,-28.36183666261021 -75.5379610122985,-41.840729333949724 c-64.86717098082137,-25.55373402274781 -127.48785984975282,-38.751816430101066 -209.765267197721,-43.24478065388091 l-33.97804194233501,-1.9656718479036783 l-0.5616205279724796,215.94309300541832 l-0.8424307919587197,215.94309300541832 l-120.74841351408307,0 l-120.74841351408307,0 l-1.4040513199311986,-358.03308658245555 l-1.4040513199311986,-358.03308658245555 l-6.177825807697275,-11.232410559449589 c-7.020256599655993,-13.198082407353265 -17.971856895119334,-23.86887243883038 -31.731559830445093,-31.16993930247261 c-7.581877127628472,-4.2121539597935955 -15.725374783229425,-5.335395015738553 -36.50533431821116,-5.335395015738553 c-24.149682702816616,0 -28.36183666261021,0.8424307919587197 -45.772073029757074,8.985928447559667 c-10.670790031477106,5.054584751752314 -22.745631382885417,11.79403108742207 -27.51940587065149,14.882943991270709 l-8.143497655600951,5.897015543711035 l0,-124.67975720989044 l0,-124.67975720989044 l20.499149270995503,-8.705118183573429 c81.15416629202329,-34.53966247030748 155.84969651236304,-33.69723167834877 228.5795548847991,2.527292375876157 c53.63476042137178,26.957785342679006 92.38657685147288,65.42879150879385 121.87165457002801,121.87165457002801 c22.464821118899177,42.68316012590842 27.80021613463774,68.5177044126425 29.76588798254141,144.89809621689966 l1.6848615839174381,63.463119660890186 l39.5942472220598,1.9656718479036783 c338.3763681034188,15.444564519243189 563.3053895563969,178.87613815923473 605.707739418319,439.7488734024514 c6.7394463356697525,40.43667801401851 7.862687391614712,117.94031087422064 2.527292375876157,157.25374783229424 c-11.232410559449589,82.55821761195449 -37.909385638142375,154.44564519243184 -81.43497655600953,219.59362643723946 c-63.74392992487641,94.91386922734904 -158.6577991522254,165.11643522390898 -286.4264692659645,211.45012878163854 c-60.0933964930553,22.18401085491293 -112.04329533050961,34.25885220632125 -180.84181000713835,42.4023498619222 c-33.69723167834877,3.931343695807355 -137.59702935325748,7.020256599655993 -167.3629173357989,5.054584751752314 z" id="svg_2" fill="#ee0979" stroke="none" fill-opacity="1" filter="url(#f197)" opacity="1"/>
</g></g><defs><filter id="f197" xmlns:inkscape="http://www.inkscape.org/namespaces/inkscape" inkscape:menu="Transparency utilities" inkscape:label="Alpha repaint" inkscape:menu-tooltip="Repaint anything monochrome">
            <feFlood flood-color="#ff0069" result="result1"/>
            <feComposite operator="in" in2="SourceGraphic" result="result2"/>
        </filter></defs></svg>