<svg xmlns="http://www.w3.org/2000/svg" xmlns:se="http://svg-edit.googlecode.com" xmlns:xlink="http://www.w3.org/1999/xlink" xmlns:dc="http://purl.org/dc/elements/1.1/" xmlns:cc="http://creativecommons.org/ns#" xmlns:rdf="http://www.w3.org/1999/02/22-rdf-syntax-ns#" xmlns:inkscape="http://www.inkscape.org/namespaces/inkscape" width="600" height="300" style="">                                    <title>my vector image</title>                                    <!-- Created with Vector Paint - http://www.vectorpaint.yaks.com/ https://chrome.google.com/webstore/detail/hnbpdiengicdefcjecjbnjnoifekhgdo -->                                    <rect id="backgroundrect" width="100%" height="100%" x="0" y="0" fill="#FFFFFF" stroke="none" class="" style=""/>                                <g class="currentLayer" style=""><title>Layer 1</title><path fill="#fde005" fill-opacity="1" stroke="#ffffff" stroke-opacity="1" stroke-width="2" stroke-dasharray="none" stroke-linejoin="round" stroke-linecap="butt" stroke-dashoffset="" fill-rule="nonzero" opacity="1" marker-start="" marker-mid="" marker-end="" d="M42.000030517578125,54.18182694911957 C42.000030517578125,51.75423613371769 43.96637907805363,49.78788757324219 46.393969893455505,49.78788757324219 C48.82156070885738,49.78788757324219 50.787909269332886,51.75423613371769 50.787909269332886,54.18182694911957 C50.787909269332886,56.609417764521446 48.82156070885738,58.57576632499695 46.393969893455505,58.57576632499695 C43.96637907805363,58.57576632499695 42.000030517578125,56.609417764521446 42.000030517578125,54.18182694911957 z" id="svg_14" class=""/><path fill="#fde005" fill-opacity="1" stroke="#ffffff" stroke-opacity="1" stroke-width="2" stroke-dasharray="none" stroke-linejoin="round" stroke-linecap="butt" stroke-dashoffset="" fill-rule="nonzero" opacity="1" marker-start="" marker-mid="" marker-end="" d="M357.15151023864746,19.93940496499664 C357.15151023864746,17.344394046464743 359.2534690826583,15.242435202453976 361.8484800011901,15.242435202453976 C364.44349091972197,15.242435202453976 366.5454497637328,17.344394046464743 366.5454497637328,19.93940496499664 C366.5454497637328,22.53441588352848 364.44349091972197,24.636374727539305 361.8484800011901,24.636374727539305 C359.2534690826583,24.636374727539305 357.15151023864746,22.53441588352848 357.15151023864746,19.93940496499664 z" class="" id="svg_18"/><path fill="#fde005" fill-opacity="1" stroke="#ffffff" stroke-opacity="1" stroke-width="2" stroke-dasharray="none" stroke-linejoin="round" stroke-linecap="butt" stroke-dashoffset="" fill-rule="nonzero" opacity="1" marker-start="" marker-mid="" marker-end="" d="M402.5928852558136,242.7852434515953 C402.5928852558136,240.02281251236877 404.83045431658707,237.7852434515953 407.5928852558136,237.7852434515953 C410.35531619504013,237.7852434515953 412.5928852558136,240.02281251236877 412.5928852558136,242.7852434515953 C412.5928852558136,245.54767439082184 410.35531619504013,247.7852434515953 407.5928852558136,247.7852434515953 C404.83045431658707,247.7852434515953 402.5928852558136,245.54767439082184 402.5928852558136,242.7852434515953 z" class="" id="svg_17"/><path fill="#fde005" fill-opacity="1" stroke="#ffffff" stroke-opacity="1" stroke-width="2" stroke-dasharray="none" stroke-linejoin="round" stroke-linecap="butt" stroke-dashoffset="" fill-rule="nonzero" opacity="1" marker-start="" marker-mid="" marker-end="" d="M467.757568359375,156.06586837768555 C467.757568359375,153.303437438459 469.99513742014847,151.06586837768555 472.757568359375,151.06586837768555 C475.51999929860153,151.06586837768555 477.757568359375,153.303437438459 477.757568359375,156.06586837768555 C477.757568359375,158.82829931691208 475.51999929860153,161.06586837768555 472.757568359375,161.06586837768555 C469.99513742014847,161.06586837768555 467.757568359375,158.82829931691208 467.757568359375,156.06586837768555 z" class="" id="svg_19"/><path fill="#fde005" fill-opacity="1" stroke="#ffffff" stroke-opacity="1" stroke-width="2" stroke-dasharray="none" stroke-linejoin="round" stroke-linecap="butt" stroke-dashoffset="" fill-rule="nonzero" opacity="1" marker-start="" marker-mid="" marker-end="" d="M523.1989309137516,47.146234929561615 C523.1989309137516,45.38832419715533 524.8940589739291,43.96441650390625 526.9868096655064,43.96441650390625 C529.0795603570837,43.96441650390625 530.7746884172611,45.38832419715533 530.7746884172611,47.146234929561615 C530.7746884172611,48.9041456619679 529.0795603570837,50.32805335521698 526.9868096655064,50.32805335521698 C524.8940589739291,50.32805335521698 523.1989309137516,48.9041456619679 523.1989309137516,47.146234929561615 z" class="" id="svg_20"/><path fill="#9f00ff" fill-opacity="1" stroke="#ffffff" stroke-opacity="1" stroke-width="2" stroke-dasharray="none" stroke-linejoin="round" stroke-linecap="butt" stroke-dashoffset="" fill-rule="nonzero" opacity="1" marker-start="" marker-mid="" marker-end="" d="M36.45322799682617,175.43345100771296 C36.45322799682617,172.83844013039877 38.419576557301674,170.73648131977427 40.84716737270355,170.73648131977427 C43.27475818810544,170.73648131977427 45.24110674858093,172.83844013039877 45.24110674858093,175.43345100771296 C45.24110674858093,178.02846188502716 43.27475818810544,180.13042069565165 40.84716737270355,180.13042069565165 C38.419576557301674,180.13042069565165 36.45322799682617,178.02846188502716 36.45322799682617,175.43345100771296 z" class="" id="svg_21"/><path fill="#9f00ff" fill-opacity="1" stroke="#ffffff" stroke-opacity="1" stroke-width="2" stroke-dasharray="none" stroke-linejoin="round" stroke-linecap="butt" stroke-dashoffset="" fill-rule="nonzero" opacity="1" marker-start="" marker-mid="" marker-end="" d="M223.10670737064294,53.707496153899974 C223.10670737064294,51.949585539072494 224.66622548205194,50.52567794106225 226.5915564837915,50.52567794106225 C228.51688748553104,50.52567794106225 230.07640559694005,51.949585539072494 230.07640559694005,53.707496153899974 C230.07640559694005,55.465406768727455 228.51688748553104,56.8893143667377 226.5915564837915,56.8893143667377 C224.66622548205194,56.8893143667377 223.10670737064294,55.465406768727455 223.10670737064294,53.707496153899974 z" class="" id="svg_22"/><path fill="#9f00ff" fill-opacity="1" stroke="#ffffff" stroke-opacity="1" stroke-width="2" stroke-dasharray="none" stroke-linejoin="round" stroke-linecap="butt" stroke-dashoffset="" fill-rule="nonzero" opacity="1" marker-start="" marker-mid="" marker-end="" d="M292.0921914071746,206.6851050095122 C292.0921914071746,205.09461433901822 293.3804888502747,203.80631689591814 294.97097952076865,203.80631689591814 C296.56147019126263,203.80631689591814 297.8497676343627,205.09461433901822 297.8497676343627,206.6851050095122 C297.8497676343627,208.27559568000618 296.56147019126263,209.56389312310625 294.97097952076865,209.56389312310625 C293.3804888502747,209.56389312310625 292.0921914071746,208.27559568000618 292.0921914071746,206.6851050095122 z" class="" id="svg_23"/><path fill="#9f00ff" fill-opacity="1" stroke="#ffffff" stroke-opacity="1" stroke-width="2" stroke-dasharray="none" stroke-linejoin="round" stroke-linecap="butt" stroke-dashoffset="" fill-rule="nonzero" opacity="1" marker-start="" marker-mid="" marker-end="" d="M496.32143587054634,104.70883018088016 C496.32143587054634,102.61607911936665 498.01656393072386,100.92095075954073 500.1093146223011,100.92095075954073 C502.20206531387834,100.92095075954073 503.89719337405586,102.61607911936665 503.89719337405586,104.70883018088016 C503.89719337405586,106.80158124239367 502.20206531387834,108.4967096022196 500.1093146223011,108.4967096022196 C498.01656393072386,108.4967096022196 496.32143587054634,106.80158124239367 496.32143587054634,104.70883018088016 z" class="" id="svg_24"/><path fill="#04b8b8" fill-opacity="1" stroke="#ffffff" stroke-opacity="1" stroke-width="2" stroke-dasharray="none" stroke-linejoin="round" stroke-linecap="butt" stroke-dashoffset="" fill-rule="nonzero" opacity="1" marker-start="" marker-mid="" marker-end="" d="M208.70616149902344,260.0448050621476 C208.70616149902344,257.7846348377632 210.53689980934996,255.95389695601182 212.7970705628395,255.95389695601182 C215.05724131632905,255.95389695601182 216.88797962665558,257.7846348377632 216.88797962665558,260.0448050621476 C216.88797962665558,262.304975286532 215.05724131632905,264.13571316828336 212.7970705628395,264.13571316828336 C210.53689980934996,264.13571316828336 208.70616149902344,262.304975286532 208.70616149902344,260.0448050621476 z" class="" id="svg_25"/><path fill="#04b8b8" fill-opacity="1" stroke="#ffffff" stroke-opacity="1" stroke-width="2" stroke-dasharray="none" stroke-linejoin="round" stroke-linecap="butt" stroke-dashoffset="" fill-rule="nonzero" opacity="1" marker-start="" marker-mid="" marker-end="" d="M552.948561812892,184.59026428915232 C552.948561812892,182.49751322763882 554.6436898730694,180.8023848678129 556.7364405646467,180.8023848678129 C558.829191256224,180.8023848678129 560.5243193164015,182.49751322763882 560.5243193164015,184.59026428915232 C560.5243193164015,186.68301535066584 558.829191256224,188.37814371049174 556.7364405646467,188.37814371049174 C554.6436898730694,188.37814371049174 552.948561812892,186.68301535066584 552.948561812892,184.59026428915232 z" class="" id="svg_28"/><path fill="#04b8b8" fill-opacity="1" stroke="#ffffff" stroke-opacity="1" stroke-width="2" stroke-dasharray="none" stroke-linejoin="round" stroke-linecap="butt" stroke-dashoffset="" fill-rule="nonzero" opacity="1" marker-start="" marker-mid="" marker-end="" d="M341.28848870595345,84.51122134020852 C341.28848870595345,82.92073066971456 342.57678614905353,81.63243322661447 344.1672768195475,81.63243322661447 C345.7577674900415,81.63243322661447 347.04606493314157,82.92073066971456 347.04606493314157,84.51122134020852 C347.04606493314157,86.10171201070249 345.7577674900415,87.39000945380258 344.1672768195475,87.39000945380258 C342.57678614905353,87.39000945380258 341.28848870595345,86.10171201070249 341.28848870595345,84.51122134020852 z" class="" id="svg_29"/><path fill="#04b8b8" fill-opacity="1" stroke="#ffffff" stroke-opacity="1" stroke-width="2" stroke-dasharray="none" stroke-linejoin="round" stroke-linecap="butt" stroke-dashoffset="" fill-rule="nonzero" opacity="1" marker-start="" marker-mid="" marker-end="" d="M183.17254638671875,88.46378802298241 C183.17254638671875,86.8732975034579 184.59645359926702,85.58500018264307 186.35436373821557,85.58500018264307 C188.11227387716406,85.58500018264307 189.53618108971236,86.8732975034579 189.53618108971236,88.46378802298241 C189.53618108971236,90.05427854250692 188.11227387716406,91.34257586332176 186.35436373821557,91.34257586332176 C184.59645359926702,91.34257586332176 183.17254638671875,90.05427854250692 183.17254638671875,88.46378802298241 z" class="" id="svg_30"/><path fill="#ff007f" fill-opacity="1" stroke="#ffffff" stroke-opacity="1" stroke-width="2" stroke-dasharray="none" stroke-linejoin="round" stroke-linecap="butt" stroke-dashoffset="" fill-rule="nonzero" opacity="1" marker-start="" marker-mid="" marker-end="" d="M92.98812202612558,257.1594289559322 C92.98812202612558,255.23409700903758 94.68325008630312,253.67457813205297 96.77600077788034,253.67457813205297 C98.86875146945756,253.67457813205297 100.5638795296351,255.23409700903758 100.5638795296351,257.1594289559322 C100.5638795296351,259.0847609028268 98.86875146945756,260.6442797798114 96.77600077788034,260.6442797798114 C94.68325008630312,260.6442797798114 92.98812202612558,259.0847609028268 92.98812202612558,257.1594289559322 z" class="" id="svg_31"/><path fill="#ff007f" fill-opacity="1" stroke="#ffffff" stroke-opacity="1" stroke-width="2" stroke-dasharray="none" stroke-linejoin="round" stroke-linecap="butt" stroke-dashoffset="" fill-rule="nonzero" opacity="1" marker-start="" marker-mid="" marker-end="" d="M482.86952594193554,248.70093055927396 C482.86952594193554,246.60817986769672 484.70026425226206,244.9130518075192 486.9604350057516,244.9130518075192 C489.22060575924115,244.9130518075192 491.0513440695677,246.60817986769672 491.0513440695677,248.70093055927396 C491.0513440695677,250.7936812508512 489.22060575924115,252.48880931102872 486.9604350057516,252.48880931102872 C484.70026425226206,252.48880931102872 482.86952594193554,250.7936812508512 482.86952594193554,248.70093055927396 z" class="" id="svg_32"/><path fill="#ff007f" fill-opacity="1" stroke="#ffffff" stroke-opacity="1" stroke-width="2" stroke-dasharray="none" stroke-linejoin="round" stroke-linecap="butt" stroke-dashoffset="" fill-rule="nonzero" opacity="1" marker-start="" marker-mid="" marker-end="" d="M414.7535946260794,71.20423909208975 C414.7535946260794,69.44632835968346 416.1775023193285,68.02242066643439 417.93541305173477,68.02242066643439 C419.69332378414106,68.02242066643439 421.11723147739013,69.44632835968346 421.11723147739013,71.20423909208975 C421.11723147739013,72.96214982449604 419.69332378414106,74.38605751774512 417.93541305173477,74.38605751774512 C416.1775023193285,74.38605751774512 414.7535946260794,72.96214982449604 414.7535946260794,71.20423909208975 z" class="" id="svg_33"/><path fill="#ff007f" fill-opacity="1" stroke="#ffffff" stroke-opacity="1" stroke-width="2" stroke-dasharray="none" stroke-linejoin="round" stroke-linecap="butt" stroke-dashoffset="" fill-rule="nonzero" opacity="1" marker-start="" marker-mid="" marker-end="" d="M378.0869104248102,178.2266166266952 C378.0869104248102,176.63612563972396 379.37520786791026,175.34782794027726 380.96569853840424,175.34782794027726 C382.5561892088982,175.34782794027726 383.8444866519983,176.63612563972396 383.8444866519983,178.2266166266952 C383.8444866519983,179.81710761366648 382.5561892088982,181.10540531311318 380.96569853840424,181.10540531311318 C379.37520786791026,181.10540531311318 378.0869104248102,179.81710761366648 378.0869104248102,178.2266166266952 z" class="" id="svg_34"/><path fill="#ff007f" fill-opacity="1" stroke="#ffffff" stroke-opacity="1" stroke-width="2" stroke-dasharray="none" stroke-linejoin="round" stroke-linecap="butt" stroke-dashoffset="" fill-rule="nonzero" opacity="1" marker-start="" marker-mid="" marker-end="" d="M102.32934839829144,90.94729364328052 C102.32934839829144,89.26581367256918 103.88591825758418,87.90381489629301 105.80760944189619,87.90381489629301 C107.72930062620819,87.90381489629301 109.28587048550092,89.26581367256918 109.28587048550092,90.94729364328052 C109.28587048550092,92.62877361399185 107.72930062620819,93.99077239026802 105.80760944189619,93.99077239026802 C103.88591825758418,93.99077239026802 102.32934839829144,92.62877361399185 102.32934839829144,90.94729364328052 z" class="" id="svg_35"/></g></svg>