<svg xmlns="http://www.w3.org/2000/svg" xmlns:xlink="http://www.w3.org/1999/xlink" width="48" height="48" viewBox="0 0 48 48"><defs><linearGradient id="b" x1="992.183" x2="1019.298" y1="516.081" y2="545.959" gradientTransform="matrix(1.53785 0 0 1.53785 -1243.705 878.342)" gradientUnits="userSpaceOnUse" xlink:href="#a"/><linearGradient id="a"><stop offset="0" stop-color="#ff1679"/><stop offset="1" stop-color="#ff770b"/></linearGradient></defs><g transform="translate(-279 -1671.362)"><rect width="48" height="48" x="279" y="1671.362" fill="url(#b)" rx="10.144" ry="10.144"/><path fill="#fff" style="line-height:normal;-inkscape-font-specification:Sans;text-indent:0;text-align:start;text-decoration-line:none;text-transform:none;block-progression:tb;marker:none" d="m 290,1686.3622 23,0 0,5 -2.5,0 c -0.0517,-0.01 -0.1046,-0.01 -0.15625,0 -0.20652,0.068 -0.35453,0.2827 -0.34375,0.5 l 0,3.5 -3.3125,0 1.15625,-1.1562 c 0.33206,-0.2806 0.0223,-0.9477 -0.40625,-0.875 -0.10743,0.02 -0.20794,0.075 -0.28125,0.1562 l -1.90625,1.9063 c -0.49818,0.4981 -0.17584,0.9687 0.375,0.9687 l 6.875,0 c 0.26416,0 0.50712,-0.2358 0.50712,-0.5 0,-0.2644 -0.24296,-0.5037 -0.50712,-0.5 l -1.5,0 0,-1 7,0 0,8 -7,0 0,-1 0,-1 0,-2 2.28125,0 -1.125,1.125 c -0.22091,0.1709 -0.24845,0.5391 -0.0554,0.741 0.19305,0.202 0.56237,0.1909 0.7429,-0.022 l 1.9375,-1.9065 c 0.0628,-0.04 0.11664,-0.093 0.15625,-0.156 0.0898,-0.09 0.19755,-0.7815 -0.4375,-0.7815 l -7,0 c -0.0517,-0.01 -0.1046,-0.01 -0.15625,0 -0.2618,0.041 -0.46278,0.3163 -0.42188,0.5781 0.0409,0.2618 0.31633,0.4628 0.57813,0.4219 l 2.5,0 0,2 -20,0 z m 21,6 7,0 0,1 -7,0 z m -22.75,9 1.125,0 20.625,0 0,1 -20.25,0 c -0.75717,0 -1.249,-0.4578 -1.5,-1 z m 22.75,2 7,0 0,1 -7,0 z" color="#000" font-family="Sans" font-weight="400" overflow="visible"/></g></svg>